
<?xml version="1.0" standalone="no"?>
<!DOCTYPE svg PUBLIC "-//W3C//DTD SVG 20010904//EN"
 "http://www.w3.org/TR/2001/REC-SVG-20010904/DTD/svg10.dtd">
<svg version="1.0" xmlns="http://www.w3.org/2000/svg"
 width="313.000000pt" height="365.000000pt" viewBox="0 0 313.000000 365.000000"
 preserveAspectRatio="xMidYMid meet">

<g transform="translate(0.000000,365.000000) scale(0.100000,-0.100000)"
fill="#000000" stroke="none">
<path d="M177 3413 c-12 -11 -8 -23 7 -23 8 0 16 7 20 15 5 15 -14 21 -27 8z"/>
<path d="M255 3410 c-3 -5 -1 -10 4 -10 6 0 11 5 11 10 0 6 -2 10 -4 10 -3 0
-8 -4 -11 -10z"/>
<path d="M401 3404 c0 -11 3 -14 6 -6 3 7 2 16 -1 19 -3 4 -6 -2 -5 -13z"/>
<path d="M424 3408 c3 -15 26 -23 26 -8 0 6 -4 9 -9 6 -5 -4 -12 -1 -14 4 -3
6 -4 5 -3 -2z"/>
<path d="M532 3401 c7 -11 16 -17 20 -15 5 3 2 12 -6 20 -21 20 -28 17 -14 -5z"/>
<path d="M705 3410 c-8 -13 4 -32 16 -25 12 8 12 35 0 35 -6 0 -13 -4 -16 -10z"/>
<path d="M789 3414 c0 -5 -2 -17 -4 -26 -2 -10 3 -18 10 -18 9 0 12 8 10 21
-5 24 -15 38 -16 23z"/>
<path d="M896 3412 c-7 -11 11 -38 20 -29 4 4 13 2 20 -4 8 -7 19 -7 30 -1 11
6 13 11 5 16 -6 4 -11 3 -11 -3 0 -6 -7 -8 -15 -5 -8 4 -15 12 -15 20 0 15
-25 19 -34 6z"/>
<path d="M1005 3410 c-3 -5 -1 -10 4 -10 6 0 11 5 11 10 0 6 -2 10 -4 10 -3 0
-8 -4 -11 -10z"/>
<path d="M1170 3405 c0 -8 2 -15 4 -15 2 0 6 7 10 15 3 8 1 15 -4 15 -6 0 -10
-7 -10 -15z"/>
<path d="M1315 3411 c-6 -11 9 -23 19 -14 9 9 7 23 -3 23 -6 0 -12 -4 -16 -9z"/>
<path d="M483 3345 c0 -38 2 -53 4 -32 2 20 2 52 0 70 -2 17 -4 1 -4 -38z"/>
<path d="M745 3400 c-3 -5 -3 -15 1 -21 6 -11 23 6 24 24 0 10 -18 9 -25 -3z"/>
<path d="M1060 3400 c0 -5 5 -10 10 -10 6 0 10 5 10 10 0 6 -4 10 -10 10 -5 0
-10 -4 -10 -10z"/>
<path d="M1387 3403 c-4 -3 -7 -11 -7 -17 0 -6 5 -5 12 2 6 6 9 14 7 17 -3 3
-9 2 -12 -2z"/>
<path d="M1464 3378 c7 -18 17 -28 31 -28 18 1 19 1 3 11 -10 5 -18 17 -18 25
0 8 5 12 10 9 6 -4 8 -10 6 -14 -3 -4 2 -8 10 -8 13 0 13 2 0 15 -9 9 -24 16
-34 17 -17 1 -18 -2 -8 -27z"/>
<path d="M316 3353 c15 -27 31 -53 35 -59 5 -5 6 -19 3 -31 -5 -18 -1 -20 33
-19 32 1 38 -2 41 -21 3 -19 10 -23 38 -23 19 0 34 -4 34 -10 0 -16 30 -11 37
6 9 23 -13 40 -32 24 -10 -8 -15 -9 -15 -1 0 6 5 11 10 11 6 0 10 6 10 14 0 8
6 17 13 19 6 3 -3 6 -21 6 -22 1 -31 -3 -26 -10 6 -10 -25 -8 -77 7 -9 3 -35
34 -58 69 -49 76 -64 86 -25 18z m214 -153 c0 -5 -4 -10 -10 -10 -5 0 -10 5
-10 10 0 6 5 10 10 10 6 0 10 -4 10 -10z"/>
<path d="M1030 3390 c0 -5 5 -10 10 -10 6 0 10 5 10 10 0 6 -4 10 -10 10 -5 0
-10 -4 -10 -10z"/>
<path d="M1214 3383 c-4 -10 -6 -25 -5 -33 2 -11 -2 -11 -18 4 -16 15 -21 16
-21 5 0 -28 20 -38 48 -23 14 7 29 11 34 8 4 -3 8 0 8 6 0 6 -6 10 -13 8 -7
-2 -13 2 -13 7 0 6 6 9 13 7 7 -2 13 2 13 8 0 6 -4 8 -10 5 -5 -3 -10 -1 -10
4 0 17 -17 13 -26 -6z"/>
<path d="M1014 3378 c3 -10 1 -20 -4 -23 -6 -4 -10 2 -10 12 0 14 -2 15 -9 5
-4 -8 -11 -13 -15 -12 -4 1 -12 -1 -19 -4 -6 -3 -3 -4 8 -3 15 2 20 -5 22 -32
4 -43 13 -54 13 -16 0 16 7 36 14 44 11 12 12 21 5 31 -9 13 -10 12 -5 -2z"/>
<path d="M1440 3374 c0 -8 5 -12 10 -9 6 4 8 11 5 16 -9 14 -15 11 -15 -7z"/>
<path d="M841 3364 c0 -11 3 -14 6 -6 3 7 2 16 -1 19 -3 4 -6 -2 -5 -13z"/>
<path d="M544 3358 c-3 -4 9 -8 27 -8 18 0 29 3 25 7 -10 10 -46 11 -52 1z"/>
<path d="M1045 3360 c3 -5 11 -10 16 -10 6 0 7 5 4 10 -3 6 -11 10 -16 10 -6
0 -7 -4 -4 -10z"/>
<path d="M1702 3345 c1 -16 9 -30 16 -33 18 -6 15 33 -4 49 -14 11 -15 9 -12
-16z"/>
<path d="M1770 3355 c-14 -17 -10 -47 6 -37 15 9 28 52 16 52 -5 0 -15 -7 -22
-15z"/>
<path d="M1416 3351 c-4 -5 -2 -12 3 -15 5 -4 12 -2 15 3 4 5 2 12 -3 15 -5 4
-12 2 -15 -3z"/>
<path d="M1610 3356 c0 -2 7 -9 15 -16 9 -7 15 -8 15 -2 0 5 -7 12 -15 16 -8
3 -15 4 -15 2z"/>
<path d="M1113 3343 c9 -2 23 -2 30 0 6 3 -1 5 -18 5 -16 0 -22 -2 -12 -5z"/>
<path d="M500 3330 c0 -5 5 -10 11 -10 5 0 7 5 4 10 -3 6 -8 10 -11 10 -2 0
-4 -4 -4 -10z"/>
<path d="M900 3321 c0 -12 5 -21 10 -21 6 0 10 6 10 14 0 8 -4 18 -10 21 -5 3
-10 -3 -10 -14z"/>
<path d="M1028 3333 c7 -3 16 -2 19 1 4 3 -2 6 -13 5 -11 0 -14 -3 -6 -6z"/>
<path d="M1511 3326 c-7 -8 -8 -17 -3 -19 4 -3 13 3 20 14 14 22 0 26 -17 5z"/>
<path d="M1822 3318 c-7 -7 -12 -19 -12 -27 -1 -18 -15 -37 -49 -66 l-24 -20
6 38 c3 22 2 35 -4 32 -5 -4 -9 -16 -9 -27 0 -21 0 -21 -22 -2 l-23 19 23 -26
c12 -14 22 -35 22 -47 0 -20 -1 -21 -28 -5 -18 10 -36 14 -48 9 -18 -7 -18 -8
-1 -18 10 -5 25 -7 34 -4 24 10 43 -13 43 -50 0 -19 5 -34 11 -34 7 0 9 10 5
26 -5 17 -1 35 10 51 9 14 11 22 4 18 -24 -15 -4 19 23 39 23 17 30 18 51 6
14 -7 32 -10 41 -6 28 10 6 26 -38 26 l-42 0 28 25 c15 14 27 32 27 40 0 18
-12 19 -28 3z"/>
<path d="M1142 3310 c-12 -5 -30 -7 -40 -4 -13 4 -14 3 -4 -4 8 -5 13 -12 13
-16 -3 -21 1 -26 22 -26 12 0 30 7 40 14 18 14 18 14 0 19 -14 4 -13 5 5 6 13
0 20 6 17 11 -7 12 -22 12 -53 0z"/>
<path d="M1378 3298 c2 -10 6 -18 7 -18 1 0 5 8 7 18 3 11 0 19 -7 19 -7 0
-10 -8 -7 -19z"/>
<path d="M1530 3311 c0 -5 7 -11 14 -14 10 -4 13 -1 9 9 -6 15 -23 19 -23 5z"/>
<path d="M1670 3300 c12 -23 40 -27 40 -6 0 8 -7 17 -16 20 -28 11 -35 7 -24
-14z"/>
<path d="M539 3293 c-13 -16 -12 -17 4 -4 16 13 17 12 7 -14 -9 -25 -9 -26 5
-15 16 13 21 50 6 50 -5 0 -15 -8 -22 -17z"/>
<path d="M587 3296 c-3 -8 -2 -18 4 -22 16 -9 22 2 11 21 -8 15 -10 16 -15 1z"/>
<path d="M956 3301 c-4 -7 -5 -15 -2 -18 9 -9 19 4 14 18 -4 11 -6 11 -12 0z"/>
<path d="M1771 3296 c-11 -13 -11 -20 -3 -28 8 -8 13 -7 18 5 10 27 0 41 -15
23z"/>
<path d="M197 3273 c5 -11 3 -14 -6 -8 -10 5 -11 3 -4 -11 5 -11 8 -29 7 -41
-2 -27 21 -31 35 -5 6 11 5 28 -4 50 -14 32 -40 47 -28 15z"/>
<path d="M1031 3274 c0 -11 3 -14 6 -6 3 7 2 16 -1 19 -3 4 -6 -2 -5 -13z"/>
<path d="M1622 3278 c3 -7 17 -15 33 -16 25 -3 27 -2 16 12 -16 19 -55 22 -49
4z"/>
<path d="M253 3267 c0 -8 6 -14 14 -14 7 0 13 6 13 14 0 7 -6 13 -13 13 -8 0
-14 -6 -14 -13z"/>
<path d="M1205 3259 c-4 -11 -4 -23 -1 -26 3 -4 6 1 6 11 0 9 5 14 10 11 6 -3
10 -2 10 4 0 20 -19 21 -25 0z"/>
<path d="M1351 3264 c0 -11 3 -14 6 -6 3 7 2 16 -1 19 -3 4 -6 -2 -5 -13z"/>
<path d="M1507 3272 c5 -4 12 -14 15 -22 4 -12 7 -11 15 5 10 17 8 20 -15 22
-14 0 -21 -2 -15 -5z"/>
<path d="M890 3257 c-24 -19 -24 -39 0 -33 68 19 63 16 43 32 -22 16 -24 16
-43 1z"/>
<path d="M1075 3260 c-3 -5 -2 -10 4 -10 5 0 13 5 16 10 3 6 2 10 -4 10 -5 0
-13 -4 -16 -10z"/>
<path d="M1457 3264 c-11 -12 3 -24 29 -24 13 0 24 5 24 10 0 6 -12 8 -27 4
-22 -4 -25 -3 -13 5 8 6 10 11 4 11 -6 0 -14 -3 -17 -6z"/>
<path d="M997 3253 c-4 -3 -7 -11 -7 -17 0 -6 5 -5 12 2 6 6 9 14 7 17 -3 3
-9 2 -12 -2z"/>
<path d="M1420 3251 c0 -6 -10 -16 -22 -21 -16 -6 -18 -9 -7 -9 19 -1 45 26
35 36 -3 3 -6 1 -6 -6z"/>
<path d="M576 3234 c-11 -29 -6 -54 14 -74 16 -16 20 -33 19 -94 -1 -41 2 -80
6 -85 3 -6 21 -11 38 -11 24 0 28 3 17 10 -8 5 -23 7 -32 4 -15 -4 -18 1 -18
37 0 26 7 50 18 63 16 20 16 20 -2 6 -18 -14 -19 -13 -14 42 2 31 1 55 -3 52
-10 -6 -28 27 -22 43 6 18 -14 25 -21 7z m29 -64 c3 -5 1 -10 -4 -10 -6 0 -11
5 -11 10 0 6 2 10 4 10 3 0 8 -4 11 -10z"/>
<path d="M286 3232 c-3 -6 -1 -14 5 -17 14 -9 20 -2 10 14 -6 8 -11 9 -15 3z"/>
<path d="M366 3223 c-8 -21 17 -48 38 -40 9 4 16 18 16 32 0 20 -5 25 -24 25
-13 0 -27 -8 -30 -17z m44 -14 c0 -5 -7 -9 -15 -9 -15 0 -20 12 -9 23 8 8 24
-1 24 -14z"/>
<path d="M1652 3224 c9 -9 21 -13 27 -10 20 13 11 26 -16 26 -25 0 -26 -1 -11
-16z"/>
<path d="M256 3215 c-9 -23 -8 -25 9 -25 17 0 19 9 6 28 -7 11 -10 10 -15 -3z"/>
<path d="M1041 3213 c-1 -6 -4 -18 -7 -27 -4 -10 -1 -16 9 -16 8 0 17 9 20 20
3 11 1 18 -3 15 -5 -3 -11 1 -13 7 -4 9 -6 9 -6 1z"/>
<path d="M934 3199 c-12 -20 12 -31 27 -12 13 17 13 17 -5 3 -18 -14 -19 -13
-13 3 7 19 2 23 -9 6z"/>
<path d="M985 3201 c-3 -5 -1 -12 5 -16 5 -3 10 1 10 9 0 18 -6 21 -15 7z"/>
<path d="M1786 3201 c-3 -5 1 -12 10 -15 21 -8 56 3 49 15 -8 12 -52 12 -59 0z"/>
<path d="M2030 3195 c0 -8 5 -15 10 -15 6 0 10 7 10 15 0 8 -4 15 -10 15 -5 0
-10 -7 -10 -15z"/>
<path d="M883 3185 c-3 -9 -3 -18 -1 -21 3 -3 8 4 11 16 6 23 -1 27 -10 5z"/>
<path d="M1985 3180 c-3 -6 1 -7 9 -4 18 7 21 14 7 14 -6 0 -13 -4 -16 -10z"/>
<path d="M467 3174 c-4 -4 -7 -14 -7 -23 0 -11 3 -12 11 -4 6 6 10 16 7 23 -2
6 -7 8 -11 4z"/>
<path d="M2180 3166 c0 -9 5 -16 10 -16 6 0 10 4 10 9 0 6 -4 13 -10 16 -5 3
-10 -1 -10 -9z"/>
<path d="M555 3150 c3 -5 8 -10 11 -10 2 0 4 5 4 10 0 6 -5 10 -11 10 -5 0 -7
-4 -4 -10z"/>
<path d="M630 3150 c0 -5 5 -10 11 -10 5 0 7 5 4 10 -3 6 -8 10 -11 10 -2 0
-4 -4 -4 -10z"/>
<path d="M946 3152 c-3 -5 9 -7 27 -5 l32 2 -33 -8 c-41 -11 -52 -21 -23 -21
29 0 63 18 56 31 -7 11 -52 12 -59 1z"/>
<path d="M1240 3149 c0 -5 5 -7 10 -4 6 3 10 8 10 11 0 2 -4 4 -10 4 -5 0 -10
-5 -10 -11z"/>
<path d="M1270 3151 c0 -6 4 -12 8 -15 5 -3 9 1 9 9 0 8 -4 15 -9 15 -4 0 -8
-4 -8 -9z"/>
<path d="M1660 3151 c0 -5 -8 -11 -18 -13 -16 -5 -18 -12 -13 -49 6 -44 6 -44
47 -45 22 0 47 -4 55 -9 11 -6 12 -5 1 6 -7 7 -20 14 -30 15 -58 3 -62 5 -62
24 0 11 6 20 13 20 6 0 12 13 13 30 1 17 0 30 -2 30 -2 0 -4 -4 -4 -9z"/>
<path d="M1760 3151 c0 -5 9 -7 20 -4 11 3 20 7 20 9 0 2 -9 4 -20 4 -11 0
-20 -4 -20 -9z"/>
<path d="M2206 3151 c-9 -13 5 -42 17 -38 5 1 14 13 18 25 7 18 5 22 -11 22
-10 0 -21 -4 -24 -9z"/>
<path d="M861 3134 c0 -11 3 -14 6 -6 3 7 2 16 -1 19 -3 4 -6 -2 -5 -13z"/>
<path d="M1438 3143 c7 -3 16 -2 19 1 4 3 -2 6 -13 5 -11 0 -14 -3 -6 -6z"/>
<path d="M406 3124 c-4 -9 -4 -19 -2 -21 8 -8 26 8 26 23 0 19 -16 18 -24 -2z"/>
<path d="M688 3129 c-21 -12 -23 -26 -4 -26 7 0 18 9 25 19 12 20 5 23 -21 7z"/>
<path d="M519 3108 c11 -10 25 -18 31 -18 14 0 -22 36 -38 36 -7 1 -4 -7 7
-18z"/>
<path d="M1782 3078 c-1 -41 -6 -58 -16 -58 -9 0 -12 -8 -8 -25 6 -32 19 -40
37 -25 17 14 20 50 5 50 -5 0 -11 26 -13 58 l-3 57 -2 -57z"/>
<path d="M2250 3120 c0 -5 7 -7 15 -4 8 4 15 8 15 10 0 2 -7 4 -15 4 -8 0 -15
-4 -15 -10z"/>
<path d="M2130 3104 c0 -23 26 -28 34 -7 4 9 1 11 -5 7 -6 -4 -15 0 -20 7 -7
11 -9 9 -9 -7z"/>
<path d="M1310 3103 c0 -5 4 -14 9 -21 7 -11 9 -11 14 1 3 8 3 18 0 21 -9 8
-23 7 -23 -1z"/>
<path d="M340 3079 c-6 -11 -9 -25 -6 -32 3 -9 5 -8 5 1 1 7 6 10 11 7 6 -4
10 5 10 19 0 31 -6 33 -20 5z"/>
<path d="M1840 3091 c0 -5 -3 -17 -6 -25 -5 -12 -2 -15 10 -10 18 7 21 29 6
39 -5 3 -10 2 -10 -4z"/>
<path d="M420 3079 c0 -5 -4 -7 -10 -4 -5 3 -10 1 -10 -4 0 -16 16 -13 30 4 9
10 9 15 1 15 -6 0 -11 -5 -11 -11z"/>
<path d="M570 3086 c0 -2 8 -10 18 -17 15 -13 16 -12 3 4 -13 16 -21 21 -21
13z"/>
<path d="M1001 3043 c-1 -26 -7 -51 -14 -55 -14 -8 2 -80 19 -85 7 -2 17 10
23 28 15 43 14 59 -3 59 -11 0 -13 11 -9 50 3 28 1 50 -4 50 -5 0 -10 -21 -12
-47z"/>
<path d="M1383 3044 c2 -37 -3 -51 -20 -68 -29 -27 -30 -42 -1 -22 51 36 110
5 112 -60 l2 -39 46 -3 c45 -3 48 -1 72 37 28 44 55 57 85 42 32 -17 46 -14
29 7 -9 9 -13 23 -11 30 3 6 -1 12 -7 12 -7 0 -10 8 -7 20 4 16 -4 22 -43 35
-26 9 -59 14 -73 11 -32 -6 -40 3 -24 23 10 14 10 14 -4 4 -15 -12 -16 -46 -3
-90 6 -20 3 -23 -24 -23 -24 0 -32 6 -41 30 -8 24 -16 30 -40 30 -28 0 -31 3
-31 29 0 17 -4 32 -9 36 -6 3 -9 -14 -8 -41z"/>
<path d="M2240 3050 c0 -40 0 -40 38 -40 45 0 62 14 62 52 0 27 -2 28 -50 28
l-50 0 0 -40z m70 10 c-6 -11 -18 -20 -28 -20 -15 1 -15 2 2 15 19 15 19 15
-3 15 -34 0 -23 -33 14 -41 29 -6 29 -7 -7 -8 -36 -1 -38 1 -38 29 0 28 3 30
35 30 33 0 35 -2 25 -20z"/>
<path d="M772 3068 c-7 -7 -12 -19 -12 -27 0 -14 1 -14 10 -1 6 10 10 11 10 3
0 -7 5 -13 10 -13 6 0 10 11 10 25 0 27 -9 32 -28 13z"/>
<path d="M820 3060 c0 -11 6 -20 13 -20 9 0 8 -3 -2 -9 -20 -13 59 -24 109
-16 36 6 40 10 40 36 0 16 -4 29 -10 29 -5 0 -7 -7 -3 -15 3 -9 -2 -22 -13
-30 -22 -17 -74 -20 -74 -4 0 5 -5 7 -12 3 -7 -5 -8 -3 -3 5 4 7 18 11 31 8
13 -2 24 0 24 5 0 6 -20 8 -45 6 -33 -2 -44 0 -40 9 2 7 0 13 -5 13 -6 0 -10
-9 -10 -20z"/>
<path d="M1290 3060 c0 -5 5 -10 11 -10 5 0 7 5 4 10 -3 6 -8 10 -11 10 -2 0
-4 -4 -4 -10z"/>
<path d="M1480 3060 c0 -5 5 -10 10 -10 6 0 10 5 10 10 0 6 -4 10 -10 10 -5 0
-10 -4 -10 -10z"/>
<path d="M1910 3055 c0 -10 7 -15 18 -13 21 4 19 22 -2 26 -10 2 -16 -3 -16
-13z"/>
<path d="M2125 3060 c3 -5 8 -10 11 -10 2 0 4 5 4 10 0 6 -5 10 -11 10 -5 0
-7 -4 -4 -10z"/>
<path d="M707 3039 c4 -13 8 -18 11 -10 2 7 -1 18 -6 23 -8 8 -9 4 -5 -13z"/>
<path d="M1870 3040 c0 -5 5 -10 10 -10 6 0 10 5 10 10 0 6 -4 10 -10 10 -5 0
-10 -4 -10 -10z"/>
<path d="M2175 3040 c-4 -6 -11 -8 -16 -5 -5 4 -9 2 -9 -4 0 -6 -8 -8 -17 -5
-17 5 -17 5 0 -9 21 -18 24 -62 3 -54 -10 4 -13 1 -9 -9 3 -7 17 -14 31 -14
20 0 23 3 14 12 -14 14 -16 68 -3 68 5 0 11 7 15 15 6 17 0 20 -9 5z"/>
<path d="M280 3019 c-6 -11 -9 -25 -6 -32 2 -7 5 -3 6 8 l1 20 9 -20 c7 -17 9
-15 9 13 1 37 -4 40 -19 11z"/>
<path d="M1036 3025 c-3 -8 -1 -15 3 -15 5 0 11 7 15 15 3 8 1 15 -3 15 -5 0
-11 -7 -15 -15z"/>
<path d="M1316 3027 c3 -10 9 -15 12 -12 3 3 0 11 -7 18 -10 9 -11 8 -5 -6z"/>
<path d="M252 2990 c0 -19 2 -27 5 -17 2 9 2 25 0 35 -3 9 -5 1 -5 -18z"/>
<path d="M2040 3010 c0 -5 7 -10 16 -10 8 0 12 5 9 10 -3 6 -10 10 -16 10 -5
0 -9 -4 -9 -10z"/>
<path d="M945 2999 c-4 -5 -4 -21 -1 -35 6 -23 4 -24 -43 -24 -27 0 -52 5 -54
10 -3 6 -4 5 -3 -2 2 -9 21 -13 57 -13 l54 0 0 38 c1 40 0 43 -10 26z"/>
<path d="M312 2973 c-26 -38 -34 -53 -29 -53 2 0 16 18 31 40 29 45 28 56 -2
13z"/>
<path d="M355 2991 c-10 -18 17 -23 33 -7 15 15 15 16 -5 16 -12 0 -24 -4 -28
-9z"/>
<path d="M895 2990 c27 -12 35 -12 35 0 0 6 -12 10 -27 9 -25 0 -26 -1 -8 -9z"/>
<path d="M2396 2983 c-6 -14 -5 -15 5 -6 7 7 10 15 7 18 -3 3 -9 -2 -12 -12z"/>
<path d="M1255 2981 c-3 -7 0 -8 9 -5 11 4 19 -2 26 -17 l10 -24 -3 25 c-2 26
-30 39 -42 21z"/>
<path d="M2346 2972 c-3 -5 1 -9 9 -9 8 0 12 4 9 9 -3 4 -7 8 -9 8 -2 0 -6 -4
-9 -8z"/>
<path d="M191 2955 c-1 -17 -3 -18 -11 -5 -5 8 -10 11 -10 5 0 -16 18 -40 25
-33 4 3 5 17 2 30 -4 19 -5 20 -6 3z"/>
<path d="M1250 2951 c0 -10 19 -25 25 -20 1 2 -3 10 -11 17 -8 7 -14 8 -14 3z"/>
<path d="M321 2889 c-27 -51 -31 -69 -26 -101 8 -45 28 -68 58 -68 39 1 181
46 185 60 4 10 -3 11 -24 7 -72 -16 -75 -15 -16 4 72 24 83 44 20 36 l-43 -6
48 16 c26 9 47 21 47 26 0 6 -20 7 -47 4 l-48 -6 33 15 c42 18 33 34 -12 24
-19 -4 -38 -5 -42 -1 -4 3 -2 -4 5 -16 23 -45 2 -107 -30 -87 -8 5 -10 -1 -7
-20 3 -14 1 -26 -3 -26 -5 0 -9 9 -9 19 0 10 -7 21 -15 25 -18 6 -20 49 -3 79
10 20 10 21 -5 8 -15 -12 -17 -10 -17 28 0 22 -4 41 -8 41 -5 0 -23 -28 -41
-61z"/>
<path d="M402 2925 c0 -16 2 -22 5 -12 2 9 2 23 0 30 -3 6 -5 -1 -5 -18z"/>
<path d="M618 2943 c12 -2 22 -9 22 -14 0 -5 5 -9 11 -9 8 0 8 5 -1 15 -7 8
-22 14 -34 14 -20 -2 -20 -2 2 -6z"/>
<path d="M1366 2934 c-20 -20 -20 -43 0 -72 18 -26 56 -29 78 -6 19 18 21 65
4 82 -17 17 -64 15 -82 -4z m58 -10 c21 -8 20 -41 -1 -52 -26 -13 -43 -4 -43
22 0 34 12 42 44 30z"/>
<path d="M1395 2910 c-7 -12 2 -30 16 -30 12 0 12 27 0 35 -5 3 -12 1 -16 -5z"/>
<path d="M1740 2936 c0 -8 4 -17 9 -21 6 -3 8 -14 6 -25 -3 -13 1 -17 11 -13
8 3 14 0 14 -6 0 -6 -8 -11 -18 -11 -13 0 -24 -18 -41 -68 -13 -38 -21 -75
-18 -83 3 -9 6 -7 6 7 1 28 48 134 60 134 13 0 21 -26 21 -68 0 -20 4 -42 8
-49 9 -15 6 100 -4 130 -8 21 -9 29 -12 54 -1 7 -11 17 -22 23 -16 8 -20 8
-20 -4z"/>
<path d="M1840 2939 c0 -5 -4 -7 -10 -4 -5 3 -10 1 -10 -4 0 -6 7 -11 15 -11
8 0 15 7 15 15 0 8 -2 15 -5 15 -3 0 -5 -5 -5 -11z"/>
<path d="M2264 2935 c24 -18 83 -19 114 -1 23 12 23 13 -12 13 -23 0 -32 -3
-24 -9 9 -5 10 -8 1 -8 -6 0 -15 5 -18 10 -3 6 -23 10 -43 10 -35 -1 -36 -2
-18 -15z"/>
<path d="M1985 2931 c-6 -11 9 -23 19 -14 9 9 7 23 -3 23 -6 0 -12 -4 -16 -9z"/>
<path d="M698 2923 c7 -3 16 -2 19 1 4 3 -2 6 -13 5 -11 0 -14 -3 -6 -6z"/>
<path d="M1211 2916 c-11 -13 -11 -20 -3 -28 8 -8 13 -7 18 5 10 27 0 41 -15
23z"/>
<path d="M1617 2913 c-12 -12 -7 -50 8 -63 8 -7 24 -10 36 -7 13 3 19 1 16 -6
-3 -7 -10 -11 -17 -9 -7 2 -10 -3 -7 -12 4 -9 -3 -16 -19 -20 -13 -4 -24 -13
-24 -21 0 -26 30 -16 50 18 11 17 20 28 20 23 0 -5 7 -3 16 5 14 11 14 13 -1
21 -8 5 -13 14 -9 19 3 6 3 21 0 35 -5 18 -13 24 -35 24 -15 0 -31 -3 -34 -7z
m57 -19 c8 -21 -1 -34 -25 -34 -12 0 -19 7 -19 18 0 34 33 45 44 16z"/>
<path d="M1640 2880 c0 -5 5 -10 10 -10 6 0 10 5 10 10 0 6 -4 10 -10 10 -5 0
-10 -4 -10 -10z"/>
<path d="M266 2893 c-6 -14 -5 -15 5 -6 7 7 10 15 7 18 -3 3 -9 -2 -12 -12z"/>
<path d="M591 2894 c0 -11 3 -14 6 -6 3 7 2 16 -1 19 -3 4 -6 -2 -5 -13z"/>
<path d="M678 2899 c-10 -5 -18 -15 -18 -22 0 -7 4 -6 10 3 8 13 10 12 10 -4
0 -11 2 -17 5 -14 5 5 16 48 12 48 -1 0 -10 -5 -19 -11z"/>
<path d="M1250 2899 c0 -5 5 -7 10 -4 6 3 10 8 10 11 0 2 -4 4 -10 4 -5 0 -10
-5 -10 -11z"/>
<path d="M2243 2903 c-16 -6 -17 -29 -1 -39 10 -7 38 20 38 38 0 9 -18 9 -37
1z m10 -18 c-3 -9 -8 -14 -10 -11 -3 3 -2 9 2 15 9 16 15 13 8 -4z"/>
<path d="M711 2884 c0 -11 3 -14 6 -6 3 7 2 16 -1 19 -3 4 -6 -2 -5 -13z"/>
<path d="M177 2884 c-10 -11 -8 -44 2 -44 6 0 13 4 16 10 8 12 -9 43 -18 34z"/>
<path d="M751 2856 c-25 -40 -36 -46 -28 -16 3 13 0 20 -9 20 -16 0 -19 -21
-4 -36 7 -7 4 -26 -11 -59 -40 -90 -7 -160 77 -160 38 0 50 5 70 28 16 18 24
41 24 64 0 34 -40 121 -79 172 l-18 23 -22 -36z m0 -63 c-16 -57 -14 -129 5
-147 14 -15 14 -16 0 -16 -9 0 -26 10 -37 21 -25 25 -22 59 12 138 25 59 36
61 20 4z"/>
<path d="M931 2859 c-11 -18 -21 -38 -21 -44 1 -5 7 1 16 15 l15 25 -7 -33
c-3 -20 -1 -39 6 -47 15 -18 -1 -20 -20 -2 -12 10 -12 9 -1 -5 15 -21 51 -24
69 -6 18 18 14 49 -12 92 l-24 40 -21 -35z"/>
<path d="M625 2869 c-4 -6 -5 -13 -2 -16 7 -7 27 6 27 18 0 12 -17 12 -25 -2z"/>
<path d="M2005 2870 c-3 -5 -1 -10 4 -10 6 0 11 5 11 10 0 6 -2 10 -4 10 -3 0
-8 -4 -11 -10z"/>
<path d="M2287 2860 c3 -11 9 -17 14 -14 14 8 10 34 -5 34 -9 0 -12 -7 -9 -20z"/>
<path d="M2140 2855 c-8 -9 -8 -15 -2 -15 12 0 26 19 19 26 -2 2 -10 -2 -17
-11z"/>
<path d="M1000 2851 c0 -6 5 -13 10 -16 6 -3 10 1 10 9 0 9 -4 16 -10 16 -5 0
-10 -4 -10 -9z"/>
<path d="M1038 2843 c-3 -10 -2 -27 2 -38 6 -17 7 -17 13 5 3 13 2 30 -2 38
-7 12 -9 11 -13 -5z"/>
<path d="M1170 2849 c0 -5 5 -7 10 -4 6 3 10 8 10 11 0 2 -4 4 -10 4 -5 0 -10
-5 -10 -11z"/>
<path d="M2265 2849 c-4 -6 -5 -12 -2 -15 2 -3 7 2 10 11 7 17 1 20 -8 4z"/>
<path d="M210 2841 c0 -6 4 -13 10 -16 6 -3 7 1 4 9 -7 18 -14 21 -14 7z"/>
<path d="M247 2836 c-3 -8 1 -17 9 -20 8 -3 14 1 14 9 0 20 -17 28 -23 11z"/>
<path d="M431 2834 c0 -11 3 -14 6 -6 3 7 2 16 -1 19 -3 4 -6 -2 -5 -13z"/>
<path d="M1135 2840 c3 -5 8 -10 11 -10 2 0 4 5 4 10 0 6 -5 10 -11 10 -5 0
-7 -4 -4 -10z"/>
<path d="M1213 2843 c9 -2 25 -2 35 0 9 3 1 5 -18 5 -19 0 -27 -2 -17 -5z"/>
<path d="M1298 2843 c12 -2 30 -2 40 0 9 3 -1 5 -23 4 -22 0 -30 -2 -17 -4z"/>
<path d="M2085 2840 c3 -5 11 -10 16 -10 6 0 7 5 4 10 -3 6 -11 10 -16 10 -6
0 -7 -4 -4 -10z"/>
<path d="M2442 2830 c0 -14 2 -19 5 -12 2 6 2 18 0 25 -3 6 -5 1 -5 -13z"/>
<path d="M2192 2828 c-7 -7 -12 -17 -12 -22 0 -6 5 -4 11 4 8 12 9 11 4 -7 -3
-11 0 -42 6 -68 12 -47 12 -47 25 -23 11 22 11 33 -5 77 -13 39 -20 48 -29 39z"/>
<path d="M1084 2821 c4 -5 2 -11 -2 -13 -5 -1 -6 -14 -2 -27 5 -23 6 -22 17
12 9 31 9 37 -4 37 -8 0 -12 -4 -9 -9z"/>
<path d="M1160 2810 c0 -11 -4 -20 -10 -20 -5 0 -10 -4 -10 -10 0 -5 12 -10
26 -10 22 0 25 2 14 15 -9 10 -9 15 -1 15 16 0 13 17 -4 24 -10 4 -15 -1 -15
-14z"/>
<path d="M2381 2814 c0 -11 3 -14 6 -6 3 7 2 16 -1 19 -3 4 -6 -2 -5 -13z"/>
<path d="M648 2780 c-7 -47 -2 -68 13 -53 5 5 5 29 1 53 l-8 45 -6 -45z"/>
<path d="M867 2798 c-10 -34 -9 -38 8 -38 16 0 20 27 6 48 -6 10 -10 8 -14
-10z"/>
<path d="M2153 2813 c-7 -3 -13 -9 -13 -15 0 -6 6 -8 14 -5 11 4 12 0 7 -21
-8 -28 5 -82 19 -82 12 0 21 -31 15 -51 -10 -30 -33 -23 -27 7 3 18 1 25 -6
20 -6 -4 -9 -13 -6 -20 9 -24 -17 -29 -32 -7 -12 17 -19 19 -35 11 -27 -15
-24 -30 7 -30 14 0 23 -3 21 -7 -3 -5 34 -6 81 -3 48 2 71 6 52 8 l-35 3 -18
82 c-23 101 -29 115 -44 110z"/>
<path d="M2301 2805 c0 -12 -5 -26 -11 -33 -5 -7 -3 -6 6 2 9 7 14 22 11 32
-4 17 -5 17 -6 -1z"/>
<path d="M1430 2806 c0 -2 8 -10 18 -17 15 -13 16 -12 3 4 -13 16 -21 21 -21
13z"/>
<path d="M2271 2794 c0 -11 3 -14 6 -6 3 7 2 16 -1 19 -3 4 -6 -2 -5 -13z"/>
<path d="M170 2790 c0 -5 6 -10 14 -10 8 0 18 5 21 10 3 6 -3 10 -14 10 -12 0
-21 -4 -21 -10z"/>
<path d="M220 2785 c-7 -8 -22 -15 -34 -16 -21 0 -21 0 2 -11 16 -8 28 -8 45
0 21 10 21 11 2 12 -19 1 -19 2 -1 9 12 5 15 10 9 14 -6 4 -16 0 -23 -8z"/>
<path d="M1746 2784 c-8 -21 10 -42 23 -28 6 5 5 16 -3 27 -13 16 -14 16 -20
1z"/>
<path d="M2085 2790 c3 -5 11 -10 16 -10 6 0 7 5 4 10 -3 6 -11 10 -16 10 -6
0 -7 -4 -4 -10z"/>
<path d="M2122 2780 c0 -14 2 -19 5 -12 2 6 2 18 0 25 -3 6 -5 1 -5 -13z"/>
<path d="M1530 2782 c0 -5 7 -15 15 -22 8 -7 15 -8 15 -2 0 5 -7 15 -15 22 -8
7 -15 8 -15 2z"/>
<path d="M549 2775 c-6 -44 -5 -53 7 -51 24 4 26 14 10 38 -9 12 -17 18 -17
13z"/>
<path d="M1458 2753 c6 -2 18 -2 25 0 6 3 1 5 -13 5 -14 0 -19 -2 -12 -5z"/>
<path d="M2303 2738 c3 -9 9 -33 13 -52 3 -20 10 -38 14 -41 10 -6 -16 94 -26
104 -4 3 -4 -2 -1 -11z"/>
<path d="M176 2725 c-10 -28 -7 -45 9 -45 12 0 14 7 9 28 -9 35 -10 36 -18 17z"/>
<path d="M478 2733 c-10 -2 -18 -9 -18 -14 0 -6 4 -8 9 -5 5 4 7 -3 4 -14 -8
-29 16 -25 27 6 15 38 15 37 -22 27z"/>
<path d="M220 2721 c0 -5 -3 -18 -6 -28 -4 -13 -3 -14 3 -5 8 10 12 10 23 -2
15 -19 30 -12 29 12 0 11 -3 12 -6 5 -7 -18 -23 -16 -23 1 0 8 -4 18 -10 21
-5 3 -10 2 -10 -4z"/>
<path d="M955 2717 c-14 -11 -15 -16 -5 -22 11 -7 29 9 30 28 0 10 -3 9 -25
-6z"/>
<path d="M2105 2710 c-15 -17 -15 -19 4 -25 11 -3 27 -2 36 2 13 8 12 11 -4
25 -18 15 -21 15 -36 -2z"/>
<path d="M2252 2688 c-6 -23 -9 -44 -7 -46 2 -2 9 15 15 38 6 23 9 44 7 46 -2
3 -9 -14 -15 -38z"/>
<path d="M2338 2723 c7 -3 16 -2 19 1 4 3 -2 6 -13 5 -11 0 -14 -3 -6 -6z"/>
<path d="M2398 2723 c6 -2 18 -2 25 0 6 3 1 5 -13 5 -14 0 -19 -2 -12 -5z"/>
<path d="M1557 2705 c-14 -10 -11 -12 18 -13 19 -1 37 2 39 7 9 14 -40 19 -57
6z"/>
<path d="M1725 2711 c-3 -5 -1 -12 5 -16 5 -3 10 1 10 9 0 18 -6 21 -15 7z"/>
<path d="M1856 2711 c-4 -7 -5 -15 -2 -18 9 -9 19 4 14 18 -4 11 -6 11 -12 0z"/>
<path d="M2060 2706 c0 -9 5 -16 10 -16 6 0 10 4 10 9 0 6 -4 13 -10 16 -5 3
-10 -1 -10 -9z"/>
<path d="M2481 2704 c0 -11 3 -14 6 -6 3 7 2 16 -1 19 -3 4 -6 -2 -5 -13z"/>
<path d="M425 2700 c3 -5 8 -10 11 -10 2 0 4 5 4 10 0 6 -5 10 -11 10 -5 0 -7
-4 -4 -10z"/>
<path d="M515 2701 c-3 -5 -2 -12 3 -15 5 -3 9 1 9 9 0 17 -3 19 -12 6z"/>
<path d="M2440 2655 c0 -30 5 -55 10 -55 6 0 10 25 10 55 0 30 -4 55 -10 55
-5 0 -10 -25 -10 -55z"/>
<path d="M305 2690 c-3 -5 3 -10 15 -10 12 0 18 5 15 10 -3 6 -10 10 -15 10
-5 0 -12 -4 -15 -10z"/>
<path d="M1634 2683 c1 -20 16 -34 28 -27 10 6 -9 44 -21 44 -5 0 -8 -8 -7
-17z"/>
<path d="M543 2675 c0 -8 4 -12 9 -9 4 3 8 9 8 15 0 5 -4 9 -8 9 -5 0 -9 -7
-9 -15z"/>
<path d="M1690 2684 c0 -3 9 -18 19 -33 13 -18 18 -36 14 -50 -5 -20 -3 -22
16 -16 30 9 61 -3 61 -26 0 -23 48 -27 56 -4 4 8 13 15 21 15 8 0 11 5 7 11
-3 6 0 15 7 20 10 6 4 9 -19 9 -21 0 -31 -4 -27 -11 5 -7 -5 -8 -32 -3 -53 9
-68 19 -93 59 -20 33 -30 42 -30 29z"/>
<path d="M1929 2678 c-4 -36 -7 -55 -14 -72 -6 -14 -4 -17 6 -14 8 3 13 13 11
23 -2 11 2 15 10 13 7 -3 12 -12 10 -20 -1 -8 4 -15 11 -15 20 0 18 34 -3 40
-13 3 -17 11 -13 25 2 11 0 23 -6 26 -6 4 -12 1 -12 -6z"/>
<path d="M483 2663 c-15 -6 -17 -39 -3 -48 5 -3 18 -1 27 5 16 9 15 10 -4 5
-16 -5 -23 -2 -23 8 0 9 6 17 13 20 6 2 10 7 7 9 -3 3 -11 3 -17 1z"/>
<path d="M451 2652 c0 -7 -5 -11 -10 -8 -5 4 -7 -3 -4 -15 4 -13 9 -17 15 -11
6 6 8 18 5 28 -3 11 -5 13 -6 6z"/>
<path d="M1023 2648 c3 -9 1 -18 -5 -20 -6 -2 -9 -11 -6 -18 4 -12 7 -10 16 6
7 14 7 25 0 35 -8 11 -9 11 -5 -3z"/>
<path d="M1601 2653 c0 -5 14 -19 32 -33 l32 -25 -23 33 c-22 29 -43 42 -41
25z"/>
<path d="M1770 2651 c0 -6 -7 -8 -15 -5 -11 5 -13 2 -9 -10 3 -9 12 -16 19
-16 16 0 27 27 15 35 -6 4 -10 2 -10 -4z"/>
<path d="M545 2640 c3 -5 8 -10 11 -10 2 0 4 5 4 10 0 6 -5 10 -11 10 -5 0 -7
-4 -4 -10z"/>
<path d="M624 2639 c-3 -6 1 -18 10 -27 13 -13 18 -14 28 -3 7 7 9 12 3 11
-20 -4 -35 0 -35 10 0 5 7 6 17 3 11 -4 14 -3 9 5 -9 15 -23 15 -32 1z"/>
<path d="M880 2629 c0 -5 5 -7 10 -4 6 3 10 8 10 11 0 2 -4 4 -10 4 -5 0 -10
-5 -10 -11z"/>
<path d="M945 2620 c-4 -7 -8 -35 -8 -62 1 -38 -2 -48 -13 -44 -7 3 -20 -2
-29 -10 -8 -9 -15 -11 -15 -5 0 8 -7 7 -20 -1 -24 -15 -26 -43 -5 -52 21 -8
45 3 45 20 0 8 6 14 13 14 22 0 44 35 40 64 -2 15 0 33 5 39 5 7 6 21 2 31 -5
15 -8 17 -15 6z"/>
<path d="M1690 2621 c0 -7 -5 -9 -12 -5 -7 5 -8 3 -3 -5 5 -9 10 -10 18 -2 6
6 8 14 4 18 -4 3 -7 1 -7 -6z"/>
<path d="M1848 2623 c6 -2 18 -2 25 0 6 3 1 5 -13 5 -14 0 -19 -2 -12 -5z"/>
<path d="M581 2606 c-11 -13 -11 -20 -3 -28 8 -8 13 -7 18 5 10 27 0 41 -15
23z"/>
<path d="M452 2588 c-18 -18 -14 -27 9 -21 14 4 17 8 8 13 -7 5 4 8 25 8 20 0
34 -4 31 -8 -3 -4 2 -10 10 -14 8 -3 15 -2 15 2 0 17 -26 32 -55 32 -17 0 -36
-5 -43 -12z"/>
<path d="M804 2584 c3 -9 6 -18 6 -20 0 -3 5 -2 10 1 16 10 12 35 -6 35 -11 0
-14 -5 -10 -16z"/>
<path d="M2174 2578 c-17 -20 -17 -21 -1 -9 17 13 18 12 13 -15 l-6 -29 11 28
c9 24 13 26 27 15 13 -12 14 -10 3 10 -15 28 -23 28 -47 0z"/>
<path d="M604 2558 c-19 -36 -27 -81 -14 -73 5 3 12 21 16 40 3 19 10 32 15
29 5 -3 12 1 15 10 5 12 10 13 30 4 20 -9 22 -14 11 -26 -10 -13 -9 -15 7 -9
14 6 17 4 12 -10 -6 -14 -4 -15 4 -7 9 9 9 18 -1 35 -26 51 -71 54 -95 7z"/>
<path d="M868 2584 c6 -3 10 -10 7 -15 -7 -10 43 -24 52 -15 10 10 -9 23 -42
29 -16 4 -24 4 -17 1z"/>
<path d="M2414 2578 c-4 -7 -3 -8 4 -4 9 5 13 -10 14 -51 l2 -58 3 53 c2 28 8
52 13 52 5 0 11 -24 13 -52 l3 -53 3 60 c3 50 5 55 11 30 l8 -30 1 33 c1 30
-1 32 -33 32 -19 0 -38 -5 -42 -12z"/>
<path d="M978 2572 c-21 -4 -24 -32 -4 -32 8 0 17 7 20 16 8 20 6 21 -16 16z"/>
<path d="M1737 2566 c-10 -26 4 -47 27 -44 15 2 21 10 21 28 0 29 -38 41 -48
16z m38 -26 c-5 -8 -11 -8 -17 -2 -6 6 -7 16 -3 22 5 8 11 8 17 2 6 -6 7 -16
3 -22z"/>
<path d="M845 2557 c-4 -10 -3 -23 4 -30 16 -16 23 -3 12 24 -8 22 -10 22 -16
6z"/>
<path d="M1940 2559 c0 -5 -4 -7 -10 -4 -5 3 -10 -3 -10 -14 0 -11 5 -23 12
-27 7 -5 8 -2 3 7 -6 11 -5 12 6 2 7 -7 18 -13 25 -13 18 0 26 30 13 46 -14
16 -39 19 -39 3z"/>
<path d="M1864 2549 c-9 -15 12 -33 30 -26 9 4 16 13 16 22 0 17 -35 21 -46 4z
m36 -9 c0 -5 -4 -10 -9 -10 -6 0 -13 5 -16 10 -3 6 1 10 9 10 9 0 16 -4 16
-10z"/>
<path d="M2315 2550 c-3 -5 -1 -10 4 -10 6 0 11 5 11 10 0 6 -2 10 -4 10 -3 0
-8 -4 -11 -10z"/>
<path d="M434 2520 c3 -16 -1 -36 -10 -49 -17 -24 -10 -28 12 -6 9 8 14 25 13
38 -2 12 0 27 3 33 4 6 0 11 -8 11 -12 0 -14 -7 -10 -27z"/>
<path d="M547 2516 c-5 -21 -6 -41 -3 -44 12 -11 17 7 14 44 l-3 39 -8 -39z"/>
<path d="M1997 2531 c-3 -11 1 -22 9 -25 19 -7 24 6 9 27 -12 16 -13 16 -18
-2z"/>
<path d="M2081 2534 c0 -11 3 -14 6 -6 3 7 2 16 -1 19 -3 4 -6 -2 -5 -13z"/>
<path d="M2053 2508 c2 -37 27 -52 26 -16 0 21 -1 22 -9 3 -7 -17 -9 -16 -14
13 l-6 32 3 -32z"/>
<path d="M2206 2525 c-3 -8 -1 -15 4 -15 6 0 10 7 10 15 0 8 -2 15 -4 15 -2 0
-6 -7 -10 -15z"/>
<path d="M2322 2524 c-28 -20 -30 -59 -2 -61 11 -1 18 2 15 8 -4 5 0 9 8 9 8
0 18 7 21 16 9 24 7 28 -9 14 -12 -10 -15 -10 -15 3 0 9 8 18 18 20 13 4 13 5
2 6 -9 0 -26 -6 -38 -15z m-5 -36 c-3 -8 -6 -5 -6 6 -1 11 2 17 5 13 3 -3 4
-12 1 -19z"/>
<path d="M2403 2505 c0 -22 2 -30 4 -17 2 12 2 30 0 40 -3 9 -5 -1 -4 -23z"/>
<path d="M621 2514 c0 -11 3 -14 6 -6 3 7 2 16 -1 19 -3 4 -6 -2 -5 -13z"/>
<path d="M2535 2521 c-3 -5 -2 -12 3 -15 5 -3 9 1 9 9 0 17 -3 19 -12 6z"/>
<path d="M395 2507 c-4 -10 -5 -21 -1 -24 10 -10 18 4 13 24 -4 17 -4 17 -12
0z"/>
<path d="M184 2496 c4 -11 2 -22 -4 -26 -7 -5 -6 -11 3 -19 12 -9 18 -8 31 4
9 9 16 24 15 33 0 12 -2 13 -6 4 -4 -10 -10 -9 -26 5 -20 17 -20 17 -13 -1z"/>
<path d="M259 2503 c-1 -2 -2 -6 -3 -10 -1 -5 -5 -14 -10 -22 -7 -11 -6 -12 5
-5 8 5 22 7 31 6 11 -2 16 3 15 17 -1 12 -8 19 -19 18 -10 -1 -19 -3 -19 -4z"/>
<path d="M706 2495 c-3 -8 -1 -15 4 -15 6 0 10 7 10 15 0 8 -2 15 -4 15 -2 0
-6 -7 -10 -15z"/>
<path d="M1733 2495 c4 -9 7 -21 7 -26 0 -12 37 -12 45 1 4 6 -1 7 -11 3 -11
-4 -15 -3 -10 5 4 6 -3 16 -15 23 -19 10 -21 9 -16 -6z"/>
<path d="M2381 2501 c-1 -8 -9 -24 -18 -35 -16 -20 -16 -20 6 0 13 12 21 28
18 35 -4 11 -6 11 -6 0z"/>
<path d="M670 2488 c0 -9 5 -20 10 -23 13 -8 13 5 0 25 -8 13 -10 13 -10 -2z"/>
<path d="M981 2491 c-19 -12 -6 -41 19 -41 25 0 38 29 19 41 -8 5 -16 9 -19 9
-3 0 -11 -4 -19 -9z"/>
<path d="M1987 2485 c-4 -8 -2 -17 3 -20 6 -4 10 3 10 14 0 25 -6 27 -13 6z"/>
<path d="M2030 2486 c0 -8 4 -17 9 -20 5 -4 7 3 4 14 -6 23 -13 26 -13 6z"/>
<path d="M325 2481 c-3 -5 0 -13 6 -17 7 -4 9 -3 5 4 -3 5 0 13 6 15 9 4 10 6
1 6 -6 1 -14 -3 -18 -8z"/>
<path d="M477 2470 c3 -11 7 -20 9 -20 2 0 4 9 4 20 0 11 -4 20 -9 20 -5 0 -7
-9 -4 -20z"/>
<path d="M608 2466 c-3 -14 -1 -27 5 -29 5 -1 10 -19 11 -39 0 -20 5 -40 10
-45 11 -10 -1 118 -13 130 -5 5 -11 -3 -13 -17z"/>
<path d="M950 2465 c-5 -28 -8 -30 -60 -35 l-55 -5 32 -17 c18 -10 50 -18 73
-18 23 0 55 8 73 18 l32 17 -42 3 c-39 3 -42 5 -45 35 l-4 32 -4 -30z"/>
<path d="M1907 2483 c-3 -5 8 -8 23 -8 15 0 26 3 23 8 -2 4 -13 7 -23 7 -10 0
-21 -3 -23 -7z"/>
<path d="M2199 2483 c-1 -5 -1 -17 0 -28 2 -15 0 -17 -7 -6 -12 16 -27 -3 -16
-21 4 -7 3 -8 -4 -4 -6 3 -16 -3 -23 -15 -11 -22 -11 -22 21 1 18 13 35 32 38
42 2 10 8 16 12 13 5 -3 12 0 16 6 4 8 3 9 -4 5 -7 -4 -12 -2 -12 3 0 12 -19
15 -21 4z"/>
<path d="M2271 2464 c0 -11 3 -14 6 -6 3 7 2 16 -1 19 -3 4 -6 -2 -5 -13z"/>
<path d="M1692 2450 c-15 -24 -15 -30 -1 -30 5 0 8 4 5 9 -4 5 -1 11 5 13 7 2
10 9 8 16 -3 8 -9 5 -17 -8z"/>
<path d="M1857 2464 c-8 -8 1 -24 14 -24 5 0 9 7 9 15 0 15 -12 20 -23 9z"/>
<path d="M2528 2463 c7 -3 16 -2 19 1 4 3 -2 6 -13 5 -11 0 -14 -3 -6 -6z"/>
<path d="M463 2405 c0 -33 2 -45 4 -27 2 18 2 45 0 60 -2 15 -4 0 -4 -33z"/>
<path d="M500 2419 c0 -23 5 -39 15 -43 12 -4 15 4 15 38 0 31 -4 43 -15 43
-11 0 -15 -11 -15 -38z m17 -21 c-3 -7 -5 -2 -5 12 0 14 2 19 5 13 2 -7 2 -19
0 -25z"/>
<path d="M1893 2443 c-3 -10 -8 -22 -11 -27 -3 -5 0 -6 5 -3 11 7 25 47 17 47
-3 0 -7 -8 -11 -17z"/>
<path d="M1960 2448 c0 -10 5 -18 10 -18 6 0 10 -5 10 -11 0 -5 -6 -7 -12 -3
-7 4 -9 3 -5 -1 4 -5 14 -10 22 -11 15 -2 12 7 -15 46 -8 13 -10 13 -10 -2z"/>
<path d="M2445 2450 c-3 -5 1 -10 10 -10 9 0 13 5 10 10 -3 6 -8 10 -10 10 -2
0 -7 -4 -10 -10z"/>
<path d="M246 2437 c-22 -16 -17 -50 8 -55 11 -3 16 0 12 7 -4 6 0 11 11 11
17 1 17 1 -1 15 -10 7 -15 18 -11 24 8 15 3 14 -19 -2z"/>
<path d="M1740 2428 c-5 -13 -18 -45 -29 -72 -12 -27 -20 -60 -20 -75 1 -20 2
-21 6 -6 2 11 14 46 26 78 30 80 57 74 57 -12 0 -20 7 -46 16 -57 15 -18 15
-18 5 3 -6 12 -11 45 -11 73 0 78 -29 118 -50 68z m33 -2 c4 -10 1 -13 -9 -9
-7 3 -14 9 -14 14 0 14 17 10 23 -5z"/>
<path d="M2220 2435 c-9 -10 -9 -15 -1 -15 13 0 15 -46 3 -54 -5 -3 -9 -22 -9
-43 -1 -38 -1 -38 8 -8 15 48 27 135 19 135 -4 0 -13 -7 -20 -15z"/>
<path d="M551 2424 c0 -11 3 -14 6 -6 3 7 2 16 -1 19 -3 4 -6 -2 -5 -13z"/>
<path d="M670 2426 c0 -7 -3 -28 -6 -45 -4 -17 -2 -31 3 -31 5 0 10 20 12 45
1 25 -1 45 -4 45 -3 0 -5 -6 -5 -14z"/>
<path d="M482 2400 c0 -19 2 -27 5 -17 2 9 2 25 0 35 -3 9 -5 1 -5 -18z"/>
<path d="M2260 2401 c-14 -27 -13 -41 5 -41 8 0 15 7 15 15 0 9 6 12 15 9 11
-4 15 0 15 16 0 19 -1 20 -16 6 -20 -20 -28 -20 -20 -1 8 22 -1 19 -14 -4z"/>
<path d="M2323 2387 c-2 -30 -2 -31 8 -8 5 14 6 28 1 33 -4 4 -9 -7 -9 -25z"/>
<path d="M195 2399 c-4 -6 -5 -12 -2 -15 2 -3 7 2 10 11 7 17 1 20 -8 4z"/>
<path d="M1876 2378 c-3 -13 -7 -40 -9 -62 -3 -33 -2 -36 10 -20 12 17 13 17
13 0 0 -10 -9 -20 -20 -23 -18 -5 -24 -15 -21 -35 0 -5 -4 -8 -10 -8 -5 0 -7
-4 -4 -10 9 -15 25 -12 25 5 0 8 8 22 19 32 17 17 36 77 21 68 -12 -8 -21 24
-14 51 3 13 4 24 0 24 -3 0 -8 -10 -10 -22z"/>
<path d="M1010 2380 c-9 -6 -10 -10 -3 -10 6 0 15 5 18 10 8 12 4 12 -15 0z"/>
<path d="M2165 2371 c-4 -13 -11 -18 -18 -14 -7 4 -6 -1 2 -11 12 -15 16 -15
29 -3 10 11 11 20 4 33 -9 16 -10 16 -17 -5z"/>
<path d="M2033 2373 c9 -2 25 -2 35 0 9 3 1 5 -18 5 -19 0 -27 -2 -17 -5z"/>
<path d="M697 2364 c-4 -4 -7 -17 -7 -28 0 -19 1 -19 17 -3 12 11 14 20 7 27
-6 6 -13 7 -17 4z"/>
<path d="M870 2345 c1 -26 2 -28 11 -12 8 14 8 22 0 30 -8 8 -11 3 -11 -18z"/>
<path d="M1680 2359 c0 -5 5 -7 10 -4 6 3 10 8 10 11 0 2 -4 4 -10 4 -5 0 -10
-5 -10 -11z"/>
<path d="M1929 2361 c-6 -17 12 -61 24 -61 5 0 5 5 2 11 -4 6 -10 23 -14 37
-5 17 -9 22 -12 13z"/>
<path d="M544 2338 c4 -20 26 -21 26 -1 0 14 -2 15 -9 4 -6 -9 -10 -10 -14 -2
-4 8 -5 8 -3 -1z"/>
<path d="M935 2340 c-7 -12 2 -30 16 -30 5 0 9 9 9 20 0 21 -15 27 -25 10z"/>
<path d="M1830 2340 c-11 -7 -11 -10 -2 -10 8 0 10 -5 6 -12 -5 -10 -4 -10 6
-1 17 16 9 35 -10 23z"/>
<path d="M1993 2310 c0 -25 2 -35 4 -22 2 12 2 32 0 45 -2 12 -4 2 -4 -23z"/>
<path d="M2240 2334 c0 -8 5 -12 10 -9 6 4 8 11 5 16 -9 14 -15 11 -15 -7z"/>
<path d="M975 2323 c3 -8 5 -21 5 -29 0 -8 10 -14 25 -14 20 0 25 5 25 24 0
19 -6 25 -30 28 -24 4 -30 1 -25 -9z"/>
<path d="M2073 2327 c22 -18 22 -25 -5 -46 -14 -12 -19 -24 -15 -35 9 -23 41
-16 45 9 3 17 1 17 -7 5 -9 -13 -11 -13 -11 3 0 9 4 17 9 17 7 0 24 41 18 46
-1 1 -13 5 -27 8 -23 6 -23 6 -7 -7z"/>
<path d="M2296 2325 c-3 -8 -1 -15 4 -15 6 0 10 7 10 15 0 8 -2 15 -4 15 -2 0
-6 -7 -10 -15z"/>
<path d="M2434 2329 c-3 -6 -2 -15 4 -21 13 -13 32 -2 32 18 0 16 -26 19 -36
3z"/>
<path d="M2130 2300 c0 -11 5 -20 11 -20 6 0 9 6 6 14 -3 8 -1 17 6 20 7 2 4
5 -5 5 -12 1 -18 -6 -18 -19z"/>
<path d="M2506 2305 c-8 -22 -8 -22 9 -22 17 0 18 6 6 25 -7 11 -10 10 -15 -3z"/>
<path d="M860 2278 c0 -26 16 -55 25 -46 3 3 7 18 8 34 1 20 -3 29 -15 32 -13
2 -18 -3 -18 -20z"/>
<path d="M1923 2294 c4 -7 0 -28 -8 -47 -13 -31 -13 -36 1 -41 9 -3 17 -6 19
-6 7 0 -2 90 -10 97 -4 5 -5 3 -2 -3z"/>
<path d="M2171 2284 c0 -11 3 -14 6 -6 3 7 2 16 -1 19 -3 4 -6 -2 -5 -13z"/>
<path d="M2293 2279 c6 -10 15 -15 20 -12 5 3 4 9 -3 13 -9 6 -9 9 1 13 8 3 4
5 -7 4 -18 -1 -20 -4 -11 -18z"/>
<path d="M2470 2291 c0 -5 5 -13 10 -16 6 -3 10 -2 10 4 0 5 -4 13 -10 16 -5
3 -10 2 -10 -4z"/>
<path d="M341 2275 c-1 -17 -3 -18 -11 -5 -5 8 -10 11 -10 5 0 -16 18 -40 25
-33 4 3 5 17 2 30 -4 19 -5 20 -6 3z"/>
<path d="M406 2275 c-10 -27 -7 -45 8 -45 9 0 13 9 11 25 -3 33 -11 40 -19 20z"/>
<path d="M449 2268 c-9 -19 -9 -21 2 -10 19 17 28 15 22 -7 -5 -21 12 -37 22
-21 3 5 1 10 -4 10 -6 0 -11 5 -11 11 0 5 6 7 13 3 9 -6 9 -5 0 8 -7 8 -10 18
-6 21 3 4 -1 7 -10 7 -9 0 -22 -10 -28 -22z"/>
<path d="M550 2287 c0 -2 15 -16 33 -33 l32 -29 -29 33 c-28 30 -36 37 -36 29z"/>
<path d="M1947 2270 c-10 -39 21 -78 39 -48 5 7 3 8 -6 3 -9 -5 -10 -2 -6 12
3 10 0 27 -7 38 -13 17 -14 17 -20 -5z m23 -14 c0 -3 -4 -8 -10 -11 -5 -3 -10
-1 -10 4 0 6 5 11 10 11 6 0 10 -2 10 -4z"/>
<path d="M2415 2258 c-11 -27 -15 -30 -20 -15 -4 9 -11 17 -16 17 -15 0 -10
-29 7 -38 17 -9 16 -45 -1 -84 -13 -32 11 -19 27 15 l16 32 12 -32 c7 -18 16
-33 21 -33 13 0 11 12 -6 53 -21 50 -20 71 3 62 9 -3 29 -9 45 -12 23 -5 27
-2 27 17 0 20 -4 22 -30 17 -23 -5 -32 -2 -40 13 -15 29 -29 25 -45 -12z"/>
<path d="M241 2264 c0 -11 3 -14 6 -6 3 7 2 16 -1 19 -3 4 -6 -2 -5 -13z"/>
<path d="M678 2260 c16 -19 15 -35 -2 -21 -16 13 -46 4 -46 -14 0 -6 8 -19 19
-29 17 -15 19 -15 32 0 20 24 21 50 1 65 -14 11 -15 11 -4 -1z"/>
<path d="M1007 2264 c-8 -8 1 -24 13 -24 4 0 10 7 14 15 5 15 -14 21 -27 9z"/>
<path d="M1747 2250 c3 -11 7 -20 9 -20 2 0 4 9 4 20 0 11 -4 20 -9 20 -5 0
-7 -9 -4 -20z"/>
<path d="M2120 2238 c-22 -18 -20 -18 84 -18 98 0 125 7 94 26 -7 4 -8 3 -4
-4 4 -7 3 -12 -3 -12 -5 0 -11 5 -13 11 -2 7 -30 13 -70 14 -50 1 -71 -3 -88
-17z m130 -4 c0 -2 -26 -4 -57 -3 -39 1 -50 3 -34 8 24 6 91 3 91 -5z"/>
<path d="M2320 2250 c0 -5 5 -10 10 -10 6 0 10 5 10 10 0 6 -4 10 -10 10 -5 0
-10 -4 -10 -10z"/>
<path d="M534 2238 c-4 -7 -3 -8 4 -4 7 4 12 2 12 -5 0 -6 -8 -9 -20 -6 -24 6
-27 -8 -4 -17 16 -6 37 10 42 32 3 15 -24 16 -34 0z"/>
<path d="M1777 2243 c-4 -3 -7 -11 -7 -17 0 -6 5 -5 12 2 6 6 9 14 7 17 -3 3
-9 2 -12 -2z"/>
<path d="M2010 2235 c-16 -19 -6 -45 19 -45 23 0 35 28 20 46 -15 18 -24 18
-39 -1z"/>
<path d="M457 2205 c12 -24 19 -31 25 -23 4 7 8 18 8 23 0 6 -4 4 -9 -3 -6
-10 -10 -7 -15 12 -3 14 -11 26 -16 26 -5 0 -2 -16 7 -35z"/>
<path d="M1005 2220 c-3 -6 1 -7 9 -4 18 7 21 14 7 14 -6 0 -13 -4 -16 -10z"/>
<path d="M1730 2221 c0 -6 4 -13 10 -16 6 -3 7 1 4 9 -7 18 -14 21 -14 7z"/>
<path d="M593 2201 c0 -11 5 -18 9 -15 4 3 5 11 1 19 -7 21 -12 19 -10 -4z"/>
<path d="M1797 2213 c-12 -11 -8 -23 9 -23 9 0 12 -5 8 -12 -4 -7 -3 -8 4 -4
9 5 9 13 2 27 -12 21 -14 22 -23 12z"/>
<path d="M250 2203 c0 -4 5 -15 10 -23 8 -13 10 -13 10 2 0 9 -4 20 -10 23 -5
3 -10 3 -10 -2z"/>
<path d="M525 2180 c10 -11 20 -20 23 -20 3 0 -3 9 -13 20 -10 11 -20 20 -23
20 -3 0 3 -9 13 -20z"/>
<path d="M685 2190 c-7 -12 76 -91 88 -83 8 5 -63 93 -75 93 -4 0 -10 -5 -13
-10z"/>
<path d="M1883 2185 c-6 -7 -9 -17 -5 -21 4 -5 -1 -2 -10 5 -15 12 -18 11 -18
-3 0 -17 11 -19 50 -6 21 7 22 8 5 10 -19 1 -19 2 -1 9 15 6 16 9 5 13 -8 3
-19 0 -26 -7z"/>
<path d="M2145 2190 c-3 -5 -1 -10 4 -10 6 0 11 5 11 10 0 6 -2 10 -4 10 -3 0
-8 -4 -11 -10z"/>
<path d="M2210 2192 c0 -4 9 -13 20 -20 19 -12 20 -11 8 8 -13 20 -28 27 -28
12z"/>
<path d="M2294 2188 c-13 -21 -12 -46 3 -41 7 3 13 9 13 13 0 5 3 15 6 24 7
19 -11 22 -22 4z"/>
<path d="M1018 2183 c7 -3 16 -2 19 1 4 3 -2 6 -13 5 -11 0 -14 -3 -6 -6z"/>
<path d="M1975 2182 c-27 -20 -45 -85 -45 -167 0 -61 -4 -85 -12 -85 -23 -1
42 -49 80 -59 76 -22 202 -3 202 29 0 6 4 9 9 6 5 -3 14 1 21 9 11 13 -3 15
-113 15 l-126 0 6 57 c4 34 2 54 -3 50 -5 -3 -9 7 -8 21 1 15 3 33 3 41 1 11
4 11 16 1 8 -6 19 -9 25 -5 6 4 10 3 9 -2 -5 -27 1 -35 16 -23 17 14 3 40 -21
40 -9 0 -14 11 -14 28 0 39 -22 61 -45 44z m-4 -184 c-2 -18 -3 -41 -4 -50 -1
-10 -5 -18 -9 -18 -4 0 -8 28 -8 62 0 47 3 59 12 50 6 -6 10 -26 9 -44z"/>
<path d="M865 2170 c-3 -5 -2 -10 4 -10 5 0 13 5 16 10 3 6 2 10 -4 10 -5 0
-13 -4 -16 -10z"/>
<path d="M1643 2155 c4 -9 7 -26 7 -36 0 -11 5 -17 10 -14 6 4 4 -9 -4 -27 -8
-18 -20 -49 -27 -68 l-13 -35 -12 40 c-7 22 -13 31 -13 20 -1 -17 -3 -17 -11
-5 -6 9 -10 10 -10 3 0 -7 8 -16 17 -21 10 -6 17 -23 17 -45 1 -46 8 -40 32
29 11 33 29 63 42 72 18 11 20 17 11 28 -10 12 -8 13 6 8 17 -7 17 -6 0 20
-22 33 -62 58 -52 31z"/>
<path d="M1740 2160 c-10 -6 -5 -9 18 -8 22 1 29 4 20 9 -16 11 -20 11 -38 -1z"/>
<path d="M2046 2154 c-4 -10 -1 -14 6 -12 15 5 23 28 10 28 -5 0 -13 -7 -16
-16z"/>
<path d="M587 2154 c-11 -18 19 -37 39 -26 11 6 13 11 5 16 -6 4 -11 2 -11 -3
0 -18 -18 -12 -22 7 -2 11 -6 13 -11 6z"/>
<path d="M2145 2145 c11 -8 26 -20 34 -27 12 -10 14 -10 9 4 -4 8 -1 21 5 27
8 8 1 11 -28 11 -37 -1 -39 -2 -20 -15z"/>
<path d="M470 2140 c0 -5 5 -10 11 -10 5 0 7 5 4 10 -3 6 -8 10 -11 10 -2 0
-4 -4 -4 -10z"/>
<path d="M670 2141 c0 -5 15 -20 33 -32 28 -20 30 -21 15 -3 -10 11 -18 26
-18 32 0 7 -7 12 -15 12 -8 0 -15 -4 -15 -9z"/>
<path d="M952 2133 c13 -16 70 -14 75 2 2 6 -17 10 -42 11 -37 1 -43 -1 -33
-13z"/>
<path d="M560 2130 c0 -5 5 -10 11 -10 5 0 7 5 4 10 -3 6 -8 10 -11 10 -2 0
-4 -4 -4 -10z"/>
<path d="M1823 2133 c-26 -10 -13 -32 17 -30 25 2 28 4 15 13 -13 9 -13 13 -3
17 9 4 9 5 -2 5 -8 0 -21 -2 -27 -5z"/>
<path d="M643 2123 c-14 -5 -18 -24 -5 -22 20 3 52 -15 50 -28 -3 -17 27 -41
37 -31 9 9 -45 68 -62 68 -8 0 -11 5 -8 10 7 11 6 11 -12 3z"/>
<path d="M2271 2067 c1 -37 6 -67 11 -67 9 0 3 118 -7 128 -3 4 -5 -24 -4 -61z"/>
<path d="M2307 2123 c-12 -11 -8 -23 7 -23 8 0 16 7 20 15 5 15 -14 21 -27 8z"/>
<path d="M433 2113 c9 -2 25 -2 35 0 9 3 1 5 -18 5 -19 0 -27 -2 -17 -5z"/>
<path d="M503 2113 c9 -2 23 -2 30 0 6 3 -1 5 -18 5 -16 0 -22 -2 -12 -5z"/>
<path d="M952 2101 c2 -10 16 -17 36 -19 20 -2 32 -9 32 -18 0 -8 5 -14 10
-14 6 0 10 7 10 15 0 8 -4 15 -10 15 -5 0 -10 6 -10 14 0 8 -14 15 -35 18 -28
3 -35 1 -33 -11z"/>
<path d="M1610 2098 c0 -32 17 -46 26 -23 4 9 0 24 -10 33 -15 15 -16 14 -16
-10z"/>
<path d="M1770 2111 c0 -6 4 -13 10 -16 6 -3 7 1 4 9 -7 18 -14 21 -14 7z"/>
<path d="M2380 2100 c0 -5 5 -10 10 -10 6 0 10 5 10 10 0 6 -4 10 -10 10 -5 0
-10 -4 -10 -10z"/>
<path d="M2410 2100 c0 -5 7 -7 15 -4 8 4 15 8 15 10 0 2 -7 4 -15 4 -8 0 -15
-4 -15 -10z"/>
<path d="M456 2091 c-4 -5 1 -8 9 -7 21 3 31 16 12 16 -9 0 -18 -4 -21 -9z"/>
<path d="M931 2084 c0 -11 3 -14 6 -6 3 7 2 16 -1 19 -3 4 -6 -2 -5 -13z"/>
<path d="M210 2080 c-11 -7 -5 -10 23 -10 23 0 36 4 32 10 -8 13 -35 13 -55 0z"/>
<path d="M885 2080 c-3 -6 1 -7 9 -4 18 7 21 14 7 14 -6 0 -13 -4 -16 -10z"/>
<path d="M511 2066 c-7 -8 -8 -17 -3 -20 6 -3 13 1 16 10 9 23 2 28 -13 10z"/>
<path d="M865 2061 c6 -18 4 -22 -6 -15 -11 6 -11 4 0 -10 22 -26 37 -3 16 26
l-17 23 7 -24z"/>
<path d="M617 2064 c-8 -8 1 -24 14 -24 5 0 9 7 9 15 0 15 -12 20 -23 9z"/>
<path d="M750 2060 c0 -5 5 -10 10 -10 6 0 10 5 10 10 0 6 -4 10 -10 10 -5 0
-10 -4 -10 -10z"/>
<path d="M1697 2063 c-11 -10 -8 -81 3 -88 6 -4 10 13 10 44 0 52 -1 56 -13
44z"/>
<path d="M2055 2054 c-19 -14 -19 -15 0 -34 16 -16 26 -18 50 -11 17 5 22 10
13 10 -11 1 -18 9 -18 20 0 25 -21 32 -45 15z"/>
<path d="M2213 2063 c9 -2 25 -2 35 0 9 3 1 5 -18 5 -19 0 -27 -2 -17 -5z"/>
<path d="M2313 2063 c9 -2 25 -2 35 0 9 3 1 5 -18 5 -19 0 -27 -2 -17 -5z"/>
<path d="M2450 2061 c0 -5 5 -13 10 -16 6 -3 10 -2 10 4 0 5 -4 13 -10 16 -5
3 -10 2 -10 -4z"/>
<path d="M1485 2049 c-4 -6 -5 -13 -2 -16 7 -7 27 6 27 18 0 12 -17 12 -25 -2z"/>
<path d="M1720 2050 c0 -5 5 -10 10 -10 6 0 10 5 10 10 0 6 -4 10 -10 10 -5 0
-10 -4 -10 -10z"/>
<path d="M2157 2040 c10 -11 21 -20 25 -20 4 0 0 9 -9 20 -10 11 -21 20 -25
20 -4 0 0 -9 9 -20z"/>
<path d="M901 2028 c-8 -13 -9 -24 -3 -30 13 -13 34 23 23 40 -4 7 -11 5 -20
-10z m12 -13 c-3 -9 -8 -14 -10 -11 -3 3 -2 9 2 15 9 16 15 13 8 -4z"/>
<path d="M247 2033 c-4 -3 -7 -11 -7 -17 0 -6 5 -5 12 2 6 6 9 14 7 17 -3 3
-9 2 -12 -2z"/>
<path d="M580 2030 c0 -5 5 -10 10 -10 6 0 10 5 10 10 0 6 -4 10 -10 10 -5 0
-10 -4 -10 -10z"/>
<path d="M810 1942 c0 -56 -4 -104 -10 -107 -15 -9 -12 -25 4 -25 8 0 16 -5
18 -12 5 -15 90 1 95 19 2 6 -10 19 -26 29 -30 18 -31 20 -31 93 0 41 -3 71
-7 67 -4 -4 -6 -23 -4 -42 2 -25 -1 -34 -13 -34 -12 0 -15 11 -15 50 1 28 -1
54 -5 57 -3 3 -6 -39 -6 -95z m38 -54 c-4 -41 -28 -50 -28 -10 0 16 3 32 7 35
15 16 24 5 21 -25z"/>
<path d="M975 2030 c-3 -5 -1 -10 4 -10 6 0 11 5 11 10 0 6 -2 10 -4 10 -3 0
-8 -4 -11 -10z"/>
<path d="M1552 2020 c0 -14 2 -19 5 -12 2 6 2 18 0 25 -3 6 -5 1 -5 -13z"/>
<path d="M1726 2006 c-4 -15 -3 -32 0 -38 11 -17 26 31 15 49 -6 12 -10 10
-15 -11z"/>
<path d="M2396 2018 c3 -5 10 -6 15 -3 13 9 11 12 -6 12 -8 0 -12 -4 -9 -9z"/>
<path d="M941 1974 c0 -39 2 -44 9 -27 5 12 7 32 5 44 -8 41 -15 32 -14 -17z"/>
<path d="M1360 2011 c0 -6 5 -13 10 -16 6 -3 10 1 10 9 0 9 -4 16 -10 16 -5 0
-10 -4 -10 -9z"/>
<path d="M1395 2010 c-3 -5 -1 -10 4 -10 6 0 11 5 11 10 0 6 -2 10 -4 10 -3 0
-8 -4 -11 -10z"/>
<path d="M1430 2006 c-10 -13 -10 -22 0 -46 7 -16 15 -31 19 -31 38 -8 57 -1
71 23 11 21 12 32 4 45 -15 24 -76 29 -94 9z"/>
<path d="M1060 1995 c7 -8 17 -15 22 -15 6 0 5 7 -2 15 -7 8 -17 15 -22 15 -6
0 -5 -7 2 -15z"/>
<path d="M1896 1995 c-8 -22 3 -40 16 -27 7 7 7 16 1 27 -9 16 -10 16 -17 0z"/>
<path d="M2380 1996 c0 -8 4 -17 9 -20 5 -4 7 3 4 14 -6 23 -13 26 -13 6z"/>
<path d="M695 1991 c-6 -11 9 -23 19 -14 9 9 7 23 -3 23 -6 0 -12 -4 -16 -9z"/>
<path d="M1011 1984 c0 -11 3 -14 6 -6 3 7 2 16 -1 19 -3 4 -6 -2 -5 -13z"/>
<path d="M250 1976 c0 -8 4 -17 9 -20 5 -4 7 3 4 14 -6 23 -13 26 -13 6z"/>
<path d="M1327 1972 c1 -8 3 -16 3 -18 0 -2 5 -4 10 -4 6 0 10 10 10 23 0 16
-3 18 -9 8 -5 -7 -11 -9 -13 -5 -3 5 -3 3 -1 -4z"/>
<path d="M1778 1983 c7 -3 16 -2 19 1 4 3 -2 6 -13 5 -11 0 -14 -3 -6 -6z"/>
<path d="M890 1970 c0 -13 18 -22 24 -11 3 5 -1 11 -9 15 -8 3 -15 1 -15 -4z"/>
<path d="M1385 1970 c-3 -5 1 -10 9 -10 9 0 16 5 16 10 0 6 -4 10 -9 10 -6 0
-13 -4 -16 -10z"/>
<path d="M496 1948 c3 -5 10 -6 15 -3 13 9 11 12 -6 12 -8 0 -12 -4 -9 -9z"/>
<path d="M561 1944 c0 -11 3 -14 6 -6 3 7 2 16 -1 19 -3 4 -6 -2 -5 -13z"/>
<path d="M1001 1944 c0 -11 3 -14 6 -6 3 7 2 16 -1 19 -3 4 -6 -2 -5 -13z"/>
<path d="M1080 1949 c0 -5 11 -9 25 -9 14 0 25 2 25 4 0 2 -11 6 -25 8 -14 3
-25 1 -25 -3z"/>
<path d="M1375 1941 c-3 -5 -1 -12 5 -16 12 -7 30 2 30 16 0 12 -27 12 -35 0z"/>
<path d="M1650 1935 c0 -8 4 -15 10 -15 5 0 7 7 4 15 -4 8 -8 15 -10 15 -2 0
-4 -7 -4 -15z"/>
<path d="M2296 1935 c4 -8 8 -15 10 -15 2 0 4 7 4 15 0 8 -4 15 -10 15 -5 0
-7 -7 -4 -15z"/>
<path d="M241 1913 l-11 -28 20 24 c17 19 21 21 26 7 7 -19 24 -11 24 12 0 13
-2 14 -9 3 -6 -9 -11 -10 -15 -2 -11 18 -22 13 -35 -16z"/>
<path d="M1534 1928 c-4 -7 -3 -8 4 -4 7 4 12 2 12 -3 0 -6 5 -11 10 -11 6 0
10 7 10 15 0 18 -26 20 -36 3z"/>
<path d="M1415 1921 c-3 -5 -1 -12 5 -16 5 -3 10 1 10 9 0 18 -6 21 -15 7z"/>
<path d="M995 1910 c-3 -5 -2 -10 2 -10 5 0 8 -18 7 -40 0 -22 3 -40 8 -40 4
0 8 23 8 50 0 47 -11 63 -25 40z"/>
<path d="M1698 1909 c-6 -17 28 -53 37 -39 4 6 2 10 -3 10 -5 0 -13 10 -19 22
-7 16 -11 18 -15 7z"/>
<path d="M1810 1911 c0 -5 5 -13 10 -16 6 -3 10 -2 10 4 0 5 -4 13 -10 16 -5
3 -10 2 -10 -4z"/>
<path d="M599 1901 c8 -5 10 -14 6 -22 -6 -11 -5 -11 5 -2 14 12 6 33 -13 33
-8 0 -7 -3 2 -9z"/>
<path d="M943 1874 c3 -16 1 -37 -4 -46 -7 -14 -6 -16 5 -12 17 7 19 71 3 81
-6 4 -8 -5 -4 -23z"/>
<path d="M1652 1888 c-14 -14 -16 -28 -3 -28 9 0 24 30 18 36 -2 2 -9 -2 -15
-8z"/>
<path d="M2250 1891 c0 -7 -5 -9 -12 -5 -10 6 -10 4 -2 -7 14 -19 12 -55 -3
-51 -7 1 -13 -2 -13 -6 0 -5 -7 -17 -16 -28 -13 -16 -15 -16 -10 -2 3 10 2 17
-2 16 -16 -3 -41 15 -35 26 4 6 0 6 -9 -2 -9 -7 -22 -11 -29 -10 -9 2 -13 -4
-11 -16 2 -10 0 -16 -5 -13 -5 3 -7 -12 -5 -34 5 -46 22 -53 22 -9 0 27 3 30
30 30 27 0 30 -3 30 -30 0 -40 18 -38 22 3 2 18 8 31 15 30 6 -2 15 6 18 17 4
13 16 20 33 21 16 0 21 3 12 6 -23 9 -30 26 -18 41 8 9 8 16 0 24 -9 9 -12 9
-12 -1z m-90 -92 c0 -5 -4 -9 -8 -9 -5 0 -9 7 -9 15 0 8 4 12 9 9 4 -3 8 -9 8
-15z"/>
<path d="M1905 1880 c-3 -5 -1 -10 4 -10 6 0 11 5 11 10 0 6 -2 10 -4 10 -3 0
-8 -4 -11 -10z"/>
<path d="M245 1870 c-3 -5 -1 -10 4 -10 6 0 11 5 11 10 0 6 -2 10 -4 10 -3 0
-8 -4 -11 -10z"/>
<path d="M301 1861 c-8 -14 -7 -20 2 -24 7 -3 12 5 12 19 0 29 -1 29 -14 5z"/>
<path d="M1304 1865 c36 -19 74 -19 106 1 17 11 19 13 5 9 -44 -15 -85 -17
-85 -6 0 6 -12 11 -27 11 l-28 0 29 -15z"/>
<path d="M1580 1865 c7 -8 17 -15 22 -15 6 0 5 7 -2 15 -7 8 -17 15 -22 15 -6
0 -5 -7 2 -15z"/>
<path d="M1821 1867 c-1 -11 -6 -15 -13 -11 -7 5 -8 3 -3 -5 10 -16 29 2 22
21 -4 8 -6 7 -6 -5z"/>
<path d="M220 1856 c0 -8 4 -17 9 -20 5 -4 7 3 4 14 -6 23 -13 26 -13 6z"/>
<path d="M1030 1844 c0 -8 5 -12 10 -9 6 3 10 10 10 16 0 5 -4 9 -10 9 -5 0
-10 -7 -10 -16z"/>
<path d="M1092 1848 c-29 -29 4 -89 41 -74 7 2 4 5 -6 5 -10 1 -15 5 -12 11 3
5 0 7 -7 5 -15 -6 -19 31 -5 53 10 15 5 16 -11 0z"/>
<path d="M1540 1847 c0 -9 4 -18 9 -21 5 -4 8 1 7 9 -3 21 -16 31 -16 12z"/>
<path d="M1670 1850 c-8 -5 -11 -12 -7 -16 4 -4 13 -2 19 4 15 15 7 24 -12 12z"/>
<path d="M1260 1845 c0 -5 5 -17 10 -25 5 -8 10 -10 10 -5 0 6 -5 17 -10 25
-5 8 -10 11 -10 5z"/>
<path d="M1440 1840 c0 -5 5 -10 10 -10 6 0 10 5 10 10 0 6 -4 10 -10 10 -5 0
-10 -4 -10 -10z"/>
<path d="M332 1818 c-18 -18 -15 -28 8 -28 11 0 20 4 20 10 0 5 -7 7 -15 4 -8
-4 -15 -3 -15 0 0 4 10 11 23 16 13 5 16 9 7 9 -9 1 -21 -4 -28 -11z"/>
<path d="M1690 1814 c0 -8 5 -12 10 -9 6 3 10 10 10 16 0 5 -4 9 -10 9 -5 0
-10 -7 -10 -16z"/>
<path d="M181 1806 c-9 -11 -5 -15 22 -20 18 -3 48 -3 67 0 30 7 32 8 15 21
-24 17 -89 17 -104 -1z"/>
<path d="M435 1800 c-9 -27 2 -43 19 -28 13 13 10 48 -4 48 -5 0 -11 -9 -15
-20z"/>
<path d="M737 1813 c-10 -9 -9 -23 1 -23 5 0 9 7 9 15 0 17 -1 18 -10 8z"/>
<path d="M1040 1810 c0 -5 5 -10 10 -10 6 0 10 5 10 10 0 6 -4 10 -10 10 -5 0
-10 -4 -10 -10z"/>
<path d="M1301 1804 c0 -11 3 -14 6 -6 3 7 2 16 -1 19 -3 4 -6 -2 -5 -13z"/>
<path d="M1595 1810 c-3 -5 -1 -10 4 -10 6 0 11 5 11 10 0 6 -2 10 -4 10 -3 0
-8 -4 -11 -10z"/>
<path d="M1786 1803 c-4 -9 -1 -20 6 -24 19 -12 29 0 18 22 -13 23 -16 24 -24
2z"/>
<path d="M2056 1805 c-9 -24 5 -41 16 -20 7 11 7 20 0 27 -6 6 -12 3 -16 -7z"/>
<path d="M1156 1793 c-6 -14 -5 -15 5 -6 7 7 10 15 7 18 -3 3 -9 -2 -12 -12z"/>
<path d="M1320 1801 c0 -5 -3 -17 -6 -26 -4 -10 -2 -15 7 -13 11 2 15 -14 17
-69 2 -60 0 -73 -13 -73 -20 0 -20 -44 1 -65 15 -15 18 -15 35 1 23 21 25 64
4 64 -12 0 -15 14 -15 68 0 40 5 74 13 82 10 12 9 12 -4 2 -17 -13 -29 -7 -29
16 0 9 7 13 20 9 11 -3 20 -1 20 4 0 5 -11 9 -25 9 -14 0 -25 -4 -25 -9z"/>
<path d="M1617 1783 c-3 -16 -9 -37 -13 -48 -5 -15 -4 -17 5 -9 15 14 32 84
21 84 -4 0 -10 -12 -13 -27z"/>
<path d="M1224 1753 c3 -27 7 -69 8 -95 1 -27 4 -48 8 -48 3 0 4 30 2 68 -4
62 -3 66 12 47 8 -11 16 -15 16 -8 0 6 -5 15 -10 18 -6 3 -7 18 -4 32 5 18 3
24 -5 19 -6 -4 -11 -2 -11 3 0 6 -5 11 -11 11 -7 0 -9 -16 -5 -47z"/>
<path d="M1834 1776 c0 -13 4 -22 9 -19 10 6 9 31 -2 37 -5 3 -8 -5 -7 -18z"/>
<path d="M401 1774 c0 -11 3 -14 6 -6 3 7 2 16 -1 19 -3 4 -6 -2 -5 -13z"/>
<path d="M1183 1775 c0 -8 4 -12 9 -9 4 3 8 9 8 15 0 5 -4 9 -8 9 -5 0 -9 -7
-9 -15z"/>
<path d="M1695 1780 c-3 -5 1 -10 9 -10 8 0 18 5 21 10 3 6 -1 10 -9 10 -8 0
-18 -4 -21 -10z"/>
<path d="M176 1771 c-4 -7 -5 -15 -2 -18 9 -9 19 4 14 18 -4 11 -6 11 -12 0z"/>
<path d="M562 1768 c-14 -14 -15 -47 -2 -68 7 -11 11 -9 19 13 13 34 1 73 -17
55z m5 -50 c-3 -7 -5 -2 -5 12 0 14 2 19 5 13 2 -7 2 -19 0 -25z"/>
<path d="M1025 1739 c-27 -33 -22 -58 10 -45 13 4 14 10 5 26 -8 16 -8 20 2
18 7 -2 12 3 10 11 -2 9 5 12 22 9 14 -3 23 -1 20 3 -11 18 -43 8 -69 -22z"/>
<path d="M1446 1745 c-8 -30 5 -52 23 -41 15 10 14 28 -3 51 -12 17 -13 16
-20 -10z"/>
<path d="M1528 1758 c9 -9 15 -9 24 0 9 9 7 12 -12 12 -19 0 -21 -3 -12 -12z"/>
<path d="M2150 1761 c13 -10 8 -15 -12 -12 -4 0 -5 -6 -1 -15 3 -8 11 -13 17
-11 16 5 13 40 -4 44 -13 4 -13 3 0 -6z"/>
<path d="M640 1745 c-9 -11 -10 -22 -3 -38 9 -20 11 -19 15 16 5 42 5 42 -12
22z"/>
<path d="M784 1745 c-8 -20 3 -48 16 -40 13 8 13 55 0 55 -6 0 -13 -7 -16 -15z"/>
<path d="M1801 1748 c-1 -9 -9 -22 -18 -27 -10 -6 -13 -11 -7 -11 17 0 37 27
31 42 -4 8 -6 7 -6 -4z"/>
<path d="M484 1735 c-18 -13 -18 -15 -2 -31 18 -18 48 -13 48 9 0 26 -25 38
-46 22z"/>
<path d="M680 1735 c0 -8 2 -15 4 -15 2 0 6 7 10 15 3 8 1 15 -4 15 -6 0 -10
-7 -10 -15z"/>
<path d="M1700 1740 c0 -5 5 -10 11 -10 5 0 7 5 4 10 -3 6 -8 10 -11 10 -2 0
-4 -4 -4 -10z"/>
<path d="M181 1724 c0 -11 3 -14 6 -6 3 7 2 16 -1 19 -3 4 -6 -2 -5 -13z"/>
<path d="M605 1730 c-3 -5 -1 -10 4 -10 6 0 11 5 11 10 0 6 -2 10 -4 10 -3 0
-8 -4 -11 -10z"/>
<path d="M1166 1733 c-8 -9 14 -33 30 -33 8 0 14 3 14 8 0 11 -37 32 -44 25z"/>
<path d="M1505 1730 c-3 -5 1 -10 9 -10 8 0 18 5 21 10 3 6 -1 10 -9 10 -8 0
-18 -4 -21 -10z"/>
<path d="M1095 1710 c-3 -5 3 -10 15 -10 12 0 18 5 15 10 -3 6 -10 10 -15 10
-5 0 -12 -4 -15 -10z"/>
<path d="M1300 1705 c0 -8 2 -15 4 -15 2 0 6 7 10 15 3 8 1 15 -4 15 -6 0 -10
-7 -10 -15z"/>
<path d="M1917 1713 c-10 -10 -8 -23 4 -23 5 0 8 4 5 9 -4 5 0 12 6 14 7 3 8
6 2 6 -6 1 -14 -2 -17 -6z"/>
<path d="M1271 1697 c-6 -8 -8 -17 -4 -20 12 -12 19 -7 19 13 0 24 0 24 -15 7z"/>
<path d="M1392 1688 c2 -13 10 -23 18 -23 8 0 16 10 18 23 3 17 -2 22 -18 22
-16 0 -21 -5 -18 -22z"/>
<path d="M1648 1703 c6 -2 18 -2 25 0 6 3 1 5 -13 5 -14 0 -19 -2 -12 -5z"/>
<path d="M1700 1701 c0 -5 5 -13 10 -16 6 -3 10 -2 10 4 0 5 -4 13 -10 16 -5
3 -10 2 -10 -4z"/>
<path d="M1600 1690 c0 -5 5 -10 11 -10 5 0 7 5 4 10 -3 6 -8 10 -11 10 -2 0
-4 -4 -4 -10z"/>
<path d="M2113 1685 c0 -8 4 -15 8 -15 4 0 9 7 13 15 3 9 0 15 -8 15 -7 0 -13
-7 -13 -15z"/>
<path d="M394 1674 c3 -8 2 -13 -3 -10 -4 3 -13 -6 -20 -20 -14 -32 -15 -29 9
-31 11 -1 18 3 14 8 -6 11 13 39 27 39 5 0 3 -13 -6 -29 -8 -17 -17 -45 -19
-63 -3 -18 -8 -54 -11 -80 -5 -35 -11 -48 -22 -48 -30 0 26 -48 75 -64 78 -27
182 -16 222 24 10 10 20 16 23 14 2 -2 9 1 15 9 9 10 4 13 -24 14 -29 1 -37
-4 -45 -24 -12 -32 -59 -29 -74 5 -9 20 -16 23 -52 20 -22 -2 -40 0 -38 3 8
12 8 85 0 109 -7 24 -7 24 12 8 11 -10 25 -18 31 -18 13 0 54 -55 46 -62 -2
-3 9 -11 26 -18 35 -14 46 -9 35 17 -5 10 -8 21 -7 24 1 3 -11 5 -25 3 -43 -4
-93 71 -93 140 0 38 -12 46 -67 46 -28 0 -34 -3 -29 -16z m73 -86 c-3 -8 -6
-5 -6 6 -1 11 2 17 5 13 3 -3 4 -12 1 -19z m-26 -113 c-4 -27 -11 -40 -22 -41
-14 -1 -15 5 -8 35 5 20 9 52 10 71 l1 35 13 -30 c7 -18 10 -46 6 -70z"/>
<path d="M986 1681 c-3 -5 1 -11 9 -14 9 -4 12 -1 8 9 -6 16 -10 17 -17 5z"/>
<path d="M1064 1676 c-5 -12 -9 -14 -14 -6 -4 6 -7 -5 -8 -25 -1 -36 -24 -80
-34 -69 -4 3 -9 -4 -13 -16 -8 -26 0 -37 17 -22 7 6 15 10 18 9 3 -1 19 8 35
20 19 14 24 22 15 23 -9 0 -21 -5 -28 -12 -17 -17 -27 -1 -11 18 15 19 40 86
34 93 -3 2 -8 -4 -11 -13z"/>
<path d="M1097 1673 c3 -7 9 -10 14 -7 14 8 11 21 -5 21 -8 0 -12 -6 -9 -14z"/>
<path d="M1134 1681 c3 -4 -5 -13 -18 -20 -17 -10 -21 -19 -18 -42 3 -23 7
-27 17 -19 7 6 10 20 7 32 -3 15 -2 19 7 14 7 -5 10 -2 9 6 -2 7 3 12 10 11
17 -4 15 14 -4 21 -8 3 -13 2 -10 -3z"/>
<path d="M1830 1680 c0 -5 5 -10 11 -10 5 0 7 5 4 10 -3 6 -8 10 -11 10 -2 0
-4 -4 -4 -10z"/>
<path d="M571 1668 c-1 -11 -9 -18 -23 -19 -17 0 -19 -2 -8 -7 8 -4 17 -16 18
-27 5 -29 12 -32 12 -6 0 13 9 25 23 31 16 6 17 9 5 9 -9 1 -19 9 -21 19 -4
16 -5 16 -6 0z"/>
<path d="M620 1664 c0 -8 5 -25 11 -36 9 -17 13 -18 20 -7 17 26 10 59 -11 59
-11 0 -20 -7 -20 -16z"/>
<path d="M1366 1663 c-6 -14 -5 -15 5 -6 7 7 10 15 7 18 -3 3 -9 -2 -12 -12z"/>
<path d="M1175 1660 c3 -5 -2 -10 -12 -11 -14 0 -13 -2 5 -10 25 -10 42 -5 42
13 0 6 -6 6 -15 -2 -13 -11 -14 -10 -9 4 3 9 1 16 -6 16 -6 0 -8 -4 -5 -10z"/>
<path d="M1464 1655 c-8 -20 4 -35 26 -35 23 0 32 13 24 34 -8 20 -43 21 -50
1z"/>
<path d="M1675 1660 c-3 -5 -1 -10 4 -10 6 0 11 5 11 10 0 6 -2 10 -4 10 -3 0
-8 -4 -11 -10z"/>
<path d="M972 1635 c-1 -14 2 -25 6 -25 4 0 8 11 8 25 2 33 -11 33 -14 0z"/>
<path d="M1607 1640 c8 -31 23 -34 23 -6 0 16 -6 26 -14 26 -9 0 -12 -7 -9
-20z"/>
<path d="M1724 1649 c-5 -8 -3 -9 6 -4 7 4 16 2 22 -6 8 -12 9 -12 6 0 -6 20
-24 25 -34 10z"/>
<path d="M666 1635 c-11 -30 -6 -40 11 -22 12 12 14 20 6 28 -7 7 -12 6 -17
-6z"/>
<path d="M851 1624 c0 -11 3 -14 6 -6 3 7 2 16 -1 19 -3 4 -6 -2 -5 -13z"/>
<path d="M314 1598 c1 -18 -3 -46 -7 -63 l-7 -30 14 25 c19 33 30 29 38 -17 5
-26 6 -19 3 23 -5 70 -12 94 -29 94 -8 0 -12 -13 -12 -32z"/>
<path d="M1260 1611 c0 -10 7 -21 15 -25 16 -6 19 3 9 28 -8 22 -24 20 -24 -3z"/>
<path d="M1560 1620 c0 -5 5 -10 10 -10 6 0 10 5 10 10 0 6 -4 10 -10 10 -5 0
-10 -4 -10 -10z"/>
<path d="M1665 1620 c-3 -6 1 -13 10 -16 19 -8 30 0 20 15 -8 14 -22 14 -30 1z"/>
<path d="M1196 1607 c3 -10 9 -15 12 -12 3 3 0 11 -7 18 -10 9 -11 8 -5 -6z"/>
<path d="M1832 1568 c-2 -54 -1 -56 29 -67 32 -11 49 -8 49 11 0 6 -10 8 -23
5 -34 -9 -45 4 -50 58 l-3 50 -2 -57z"/>
<path d="M1443 1598 c-16 -20 -36 -106 -30 -123 4 -9 -5 -29 -22 -48 -26 -29
-28 -34 -15 -52 13 -18 14 -18 14 -1 0 28 31 47 50 33 13 -10 13 -10 1 5 -9
12 -11 27 -6 45 l7 28 10 -27 c5 -16 14 -28 19 -28 6 0 7 -5 4 -11 -12 -19 4
-59 25 -59 17 0 18 2 4 28 -7 15 -14 35 -14 45 0 10 -7 32 -16 48 -16 31 -11
77 5 51 7 -11 28 -17 73 -21 4 -1 19 -19 34 -40 23 -35 30 -40 59 -37 19 1 32
-1 29 -6 -11 -17 12 -6 45 21 l34 28 -89 17 c-124 25 -162 42 -179 83 -15 35
-27 41 -42 21z"/>
<path d="M1736 1602 c-2 -4 1 -18 8 -31 13 -23 13 -23 14 8 1 29 -11 41 -22
23z"/>
<path d="M1947 1603 c-4 -3 -7 -11 -7 -17 0 -6 5 -5 12 2 6 6 9 14 7 17 -3 3
-9 2 -12 -2z"/>
<path d="M1233 1565 c0 -22 2 -30 4 -17 2 12 2 30 0 40 -3 9 -5 -1 -4 -23z"/>
<path d="M1510 1592 c0 -5 7 -13 16 -16 23 -9 184 -7 184 2 0 4 -39 7 -87 7
-49 -1 -94 3 -100 8 -9 6 -13 6 -13 -1z"/>
<path d="M931 1546 c-11 -30 -10 -31 7 -10 10 11 24 23 32 26 10 3 8 6 -7 10
-18 5 -24 0 -32 -26z"/>
<path d="M280 1559 c0 -5 -4 -7 -10 -4 -5 3 -10 1 -10 -4 0 -6 7 -11 15 -11 8
0 15 7 15 15 0 8 -2 15 -5 15 -3 0 -5 -5 -5 -11z"/>
<path d="M1867 1564 c-8 -8 1 -24 14 -24 5 0 9 7 9 15 0 15 -12 20 -23 9z"/>
<path d="M1925 1560 c3 -5 8 -10 11 -10 2 0 4 5 4 10 0 6 -5 10 -11 10 -5 0
-7 -4 -4 -10z"/>
<path d="M1985 1561 c-3 -6 3 -15 14 -20 25 -14 31 -14 31 0 0 5 -4 7 -10 4
-5 -3 -10 1 -10 9 0 18 -15 21 -25 7z"/>
<path d="M580 1550 c0 -5 6 -10 13 -10 8 0 22 -9 32 -20 10 -11 23 -20 29 -20
6 0 5 4 -3 9 -7 5 -9 11 -5 13 5 3 3 3 -5 1 -11 -3 -10 2 4 17 18 20 18 20
-23 20 -23 0 -42 -4 -42 -10z"/>
<path d="M1777 1549 c7 -7 15 -10 18 -7 3 3 -2 9 -12 12 -14 6 -15 5 -6 -5z"/>
<path d="M1950 1540 c0 -5 5 -10 10 -10 6 0 10 5 10 10 0 6 -4 10 -10 10 -5 0
-10 -4 -10 -10z"/>
<path d="M192 1518 c-11 -19 -10 -30 3 -58 l16 -35 -6 35 c-5 26 -4 31 4 20 9
-13 11 -12 10 5 0 11 -4 28 -8 38 -6 17 -8 17 -19 -5z"/>
<path d="M747 1526 c-3 -8 -3 -17 1 -21 4 -4 8 -11 8 -16 1 -5 2 -13 3 -19 1
-13 38 -13 46 1 4 5 4 22 0 36 -6 24 -7 24 -24 9 -19 -18 -33 -12 -24 10 3 8
3 14 0 14 -3 0 -7 -6 -10 -14z"/>
<path d="M1058 1533 c7 -3 16 -2 19 1 4 3 -2 6 -13 5 -11 0 -14 -3 -6 -6z"/>
<path d="M1638 1533 c-28 -7 -21 -26 7 -21 14 3 25 2 25 -3 0 -4 9 -7 20 -6
18 1 18 2 3 19 -16 18 -23 20 -55 11z"/>
<path d="M947 1517 c-3 -9 -2 -19 4 -23 15 -9 18 -2 9 20 -6 17 -7 18 -13 3z"/>
<path d="M486 1505 c-3 -10 -2 -23 4 -29 15 -15 22 -2 12 24 -8 21 -9 22 -16
5z"/>
<path d="M1387 1513 c-4 -3 -7 -11 -7 -17 0 -6 5 -5 12 2 6 6 9 14 7 17 -3 3
-9 2 -12 -2z"/>
<path d="M1768 1498 c2 -10 7 -18 11 -18 4 0 7 8 8 18 1 10 -4 19 -11 19 -8 0
-11 -8 -8 -19z"/>
<path d="M1803 1505 c0 -8 4 -12 9 -9 4 3 8 9 8 15 0 5 -4 9 -8 9 -5 0 -9 -7
-9 -15z"/>
<path d="M1934 1505 c-3 -8 -4 -20 -1 -27 3 -8 6 -5 7 7 1 11 8 0 15 -25 l13
-45 1 37 c1 20 4 43 7 52 4 12 0 16 -15 16 -12 0 -24 -7 -27 -15z"/>
<path d="M2007 1513 c-3 -5 -1 -28 3 -53 4 -25 8 -35 9 -22 1 15 5 21 13 16 8
-5 9 0 6 14 -4 14 -2 20 5 15 7 -4 8 0 4 11 -4 10 -7 20 -7 22 0 7 -29 4 -33
-3z"/>
<path d="M1315 1490 c3 -5 11 -10 16 -10 6 0 7 5 4 10 -3 6 -11 10 -16 10 -6
0 -7 -4 -4 -10z"/>
<path d="M1490 1481 c0 -6 5 -13 10 -16 6 -3 10 1 10 9 0 9 -4 16 -10 16 -5 0
-10 -4 -10 -9z"/>
<path d="M306 1456 c-7 -29 -1 -46 15 -46 6 0 7 5 4 10 -3 6 -1 10 4 10 15 0
14 12 -3 35 -12 17 -13 17 -20 -9z"/>
<path d="M1080 1450 c6 -11 15 -20 20 -20 6 0 10 -5 10 -11 0 -6 -7 -9 -15 -6
-8 4 -16 3 -19 -1 -3 -4 4 -8 13 -9 10 -1 33 14 52 33 18 19 28 34 22 34 -7 0
-19 -10 -27 -22 l-16 -22 -20 22 c-26 27 -34 28 -20 2z"/>
<path d="M1346 1461 c-3 -5 2 -15 12 -22 15 -12 16 -12 5 2 -7 9 -10 19 -6 22
3 4 4 7 0 7 -3 0 -8 -4 -11 -9z"/>
<path d="M1370 1461 c0 -6 5 -13 10 -16 6 -3 10 1 10 9 0 9 -4 16 -10 16 -5 0
-10 -4 -10 -9z"/>
<path d="M1799 1450 c26 -23 39 -24 61 -9 12 8 9 9 -11 5 -17 -4 -31 -1 -39 9
-7 8 -18 15 -24 15 -6 -1 0 -10 13 -20z"/>
<path d="M837 1440 c-3 -11 -3 -20 -1 -20 2 0 8 9 14 20 6 11 7 20 2 20 -6 0
-12 -9 -15 -20z"/>
<path d="M1941 1434 c0 -11 3 -14 6 -6 3 7 2 16 -1 19 -3 4 -6 -2 -5 -13z"/>
<path d="M2046 1434 c-3 -8 -2 -13 3 -9 5 3 12 -1 14 -7 4 -10 8 -9 16 2 9 12
11 13 11 1 0 -8 2 -12 5 -9 3 3 3 13 -1 22 -8 20 -40 21 -48 0z"/>
<path d="M732 1428 c-17 -17 -16 -44 1 -29 8 6 18 7 23 3 4 -4 3 0 -4 9 -6 9
-9 19 -5 22 3 4 4 7 2 7 -3 0 -10 -5 -17 -12z"/>
<path d="M770 1430 c-12 -7 -10 -9 7 -7 12 0 19 5 17 9 -6 10 -6 10 -24 -2z"/>
<path d="M987 1433 c-4 -3 -7 -11 -7 -17 0 -6 5 -5 12 2 6 6 9 14 7 17 -3 3
-9 2 -12 -2z"/>
<path d="M1017 1433 c-11 -10 -8 -35 3 -28 6 3 10 1 10 -6 0 -9 3 -10 10 -3 6
6 8 18 4 27 -6 18 -16 21 -27 10z"/>
<path d="M1177 1433 c-3 -5 0 -19 8 -29 15 -20 18 -11 6 20 -4 11 -10 15 -14
9z"/>
<path d="M1300 1424 c0 -9 5 -14 12 -12 18 6 21 28 4 28 -9 0 -16 -7 -16 -16z"/>
<path d="M1771 1432 c-1 -8 -6 -10 -13 -6 -10 5 -10 4 -1 -6 15 -16 28 -8 20
12 -4 11 -6 11 -6 0z"/>
<path d="M257 1423 c-13 -12 -7 -33 8 -33 8 0 15 9 15 20 0 20 -11 26 -23 13z"/>
<path d="M585 1420 c3 -5 8 -10 11 -10 2 0 4 5 4 10 0 6 -5 10 -11 10 -5 0 -7
-4 -4 -10z"/>
<path d="M862 1425 c4 -4 2 -15 -5 -23 -10 -13 -9 -14 2 -7 11 6 13 4 8 -8 -3
-9 -2 -19 2 -22 5 -3 11 2 15 10 3 8 1 17 -5 20 -5 4 -7 10 -4 15 3 5 0 12 -7
16 -7 4 -10 4 -6 -1z"/>
<path d="M1614 1405 c-8 -21 2 -45 19 -45 8 0 20 7 27 15 10 12 10 18 0 30 -7
8 -19 15 -27 15 -7 0 -16 -7 -19 -15z m42 -6 c10 -17 -13 -36 -27 -22 -12 12
-4 33 11 33 5 0 12 -5 16 -11z"/>
<path d="M1821 1404 c0 -11 3 -14 6 -6 3 7 2 16 -1 19 -3 4 -6 -2 -5 -13z"/>
<path d="M185 1400 c-3 -6 1 -7 9 -4 18 7 21 14 7 14 -6 0 -13 -4 -16 -10z"/>
<path d="M1130 1402 c0 -5 9 -17 20 -27 22 -20 26 -14 10 16 -11 19 -30 26
-30 11z"/>
<path d="M1948 1403 c6 -2 18 -2 25 0 6 3 1 5 -13 5 -14 0 -19 -2 -12 -5z"/>
<path d="M2066 1385 c-3 -9 0 -12 9 -9 12 5 12 1 -1 -25 -17 -34 -13 -62 8
-60 10 0 10 2 1 6 -7 2 -13 9 -13 14 0 6 5 7 10 4 7 -4 8 3 4 20 -6 23 -4 26
17 22 13 -2 18 -2 12 0 -7 3 -13 10 -13 18 0 18 -27 27 -34 10z"/>
<path d="M961 1374 c0 -11 3 -14 6 -6 3 7 2 16 -1 19 -3 4 -6 -2 -5 -13z"/>
<path d="M286 1371 c-4 -7 -5 -15 -2 -18 9 -9 19 4 14 18 -4 11 -6 11 -12 0z"/>
<path d="M663 1360 c1 -20 8 -25 20 -14 7 8 -3 34 -13 34 -5 0 -8 -9 -7 -20z"/>
<path d="M735 1370 c3 -5 11 -10 16 -10 6 0 7 5 4 10 -3 6 -11 10 -16 10 -6 0
-7 -4 -4 -10z"/>
<path d="M780 1370 c-9 -6 -10 -10 -3 -10 6 0 15 5 18 10 8 12 4 12 -15 0z"/>
<path d="M1005 1370 c3 -5 8 -10 11 -10 2 0 4 5 4 10 0 6 -5 10 -11 10 -5 0
-7 -4 -4 -10z"/>
<path d="M1198 1363 c6 -2 18 -2 25 0 6 3 1 5 -13 5 -14 0 -19 -2 -12 -5z"/>
<path d="M170 1348 c0 -18 18 -34 28 -24 3 4 -2 14 -11 23 -16 16 -17 16 -17
1z"/>
<path d="M362 1348 c-7 -7 -33 -12 -58 -13 -39 0 -50 -5 -67 -27 -25 -33 -17
-71 19 -95 53 -35 121 25 97 87 -9 24 -9 30 2 30 7 0 15 7 19 15 7 18 4 19
-12 3z"/>
<path d="M905 1349 c-10 -15 3 -25 16 -12 7 7 7 13 1 17 -6 3 -14 1 -17 -5z"/>
<path d="M216 1335 c4 -8 10 -12 15 -9 11 6 2 24 -11 24 -5 0 -7 -7 -4 -15z"/>
<path d="M700 1340 c0 -5 9 -10 19 -10 11 0 23 -5 26 -10 4 -6 11 -8 16 -5 5
4 9 -1 9 -10 0 -10 5 -13 12 -9 8 5 2 15 -16 31 -28 23 -66 31 -66 13z"/>
<path d="M1025 1341 c-3 -5 -1 -12 5 -16 5 -3 10 1 10 9 0 18 -6 21 -15 7z"/>
<path d="M1510 1341 c0 -5 9 -11 20 -14 11 -3 20 -10 20 -15 0 -6 -13 -4 -30
4 -21 11 -35 12 -48 5 -11 -6 -23 -7 -27 -3 -5 4 -5 1 -1 -6 5 -9 12 -9 27 -1
15 7 28 6 51 -5 51 -26 64 -15 31 24 -18 20 -43 27 -43 11z"/>
<path d="M2005 1340 c-8 -13 -1 -24 14 -19 6 3 7 10 2 18 -6 10 -10 10 -16 1z"/>
<path d="M505 1331 c-3 -5 -1 -12 5 -16 5 -3 10 1 10 9 0 18 -6 21 -15 7z"/>
<path d="M960 1330 c-23 -7 -23 -8 -3 -9 12 -1 25 4 28 9 3 6 5 10 3 9 -2 -1
-14 -5 -28 -9z"/>
<path d="M1646 1331 c-7 -12 5 -101 13 -101 4 0 8 16 9 36 2 23 -1 33 -8 29
-5 -3 -10 -1 -10 4 0 6 5 11 10 11 6 0 10 7 10 15 0 16 -16 20 -24 6z"/>
<path d="M2115 1330 c-3 -5 1 -10 9 -10 9 0 16 5 16 10 0 6 -4 10 -9 10 -6 0
-13 -4 -16 -10z"/>
<path d="M836 1315 c-3 -8 -1 -15 4 -15 6 0 10 7 10 15 0 8 -2 15 -4 15 -2 0
-6 -7 -10 -15z"/>
<path d="M440 1310 c0 -5 7 -10 15 -10 8 0 15 -3 15 -6 0 -3 -7 -12 -15 -20
-17 -18 -20 -50 -4 -59 14 -9 19 -3 21 31 1 16 6 35 11 42 6 8 5 12 -2 12 -7
0 -9 5 -6 10 3 6 -3 10 -14 10 -12 0 -21 -4 -21 -10z m17 -72 c-3 -8 -6 -5 -6
6 -1 11 2 17 5 13 3 -3 4 -12 1 -19z"/>
<path d="M620 1310 c0 -5 5 -10 10 -10 6 0 10 5 10 10 0 6 -4 10 -10 10 -5 0
-10 -4 -10 -10z"/>
<path d="M662 1283 c-5 -10 -7 -24 -4 -32 3 -8 0 -11 -7 -7 -6 4 -11 2 -11 -3
0 -6 5 -11 12 -11 9 0 9 -3 0 -12 -17 -17 -16 -22 21 -48 31 -23 31 -23 12 -1
-16 19 -17 24 -5 32 13 8 13 10 1 18 -19 12 -22 51 -4 58 15 6 18 23 3 23 -5
0 -13 -8 -18 -17z"/>
<path d="M867 1286 c-4 -10 -7 -25 -6 -34 0 -11 4 -9 10 7 5 13 8 29 6 35 -2
5 -6 2 -10 -8z"/>
<path d="M1005 1290 c-3 -6 1 -7 9 -4 18 7 21 14 7 14 -6 0 -13 -4 -16 -10z"/>
<path d="M534 1275 c-4 -9 -3 -19 1 -23 4 -4 10 -1 12 6 3 6 9 9 15 6 6 -4 9
-1 6 6 -7 21 -27 24 -34 5z"/>
<path d="M600 1275 c-16 -19 -6 -47 15 -39 8 3 15 10 15 16 0 5 -5 6 -11 2 -8
-4 -8 0 0 15 13 24 0 28 -19 6z"/>
<path d="M1353 1283 c-15 -5 -18 -33 -4 -33 5 0 11 9 14 20 3 11 4 20 4 19 -1
0 -8 -3 -14 -6z"/>
<path d="M185 1270 c3 -5 10 -10 16 -10 5 0 9 5 9 10 0 6 -7 10 -16 10 -8 0
-12 -4 -9 -10z"/>
<path d="M380 1270 c0 -5 5 -10 10 -10 6 0 10 5 10 10 0 6 -4 10 -10 10 -5 0
-10 -4 -10 -10z"/>
<path d="M767 1273 c-8 -13 18 -36 61 -53 17 -7 32 -19 32 -26 0 -8 5 -14 10
-14 18 0 10 18 -16 39 -15 12 -35 21 -46 21 -10 0 -22 10 -27 22 -4 12 -11 17
-14 11z"/>
<path d="M1380 1268 c0 -6 -7 -19 -16 -29 -20 -22 -9 -46 12 -28 7 6 11 15 8
20 -3 5 0 18 6 29 7 13 7 20 0 20 -5 0 -10 -5 -10 -12z"/>
<path d="M2073 1265 c0 -8 4 -12 9 -9 5 3 6 10 3 15 -9 13 -12 11 -12 -6z"/>
<path d="M900 1263 c8 -3 19 -11 23 -17 6 -7 7 -6 4 4 -2 8 -12 16 -23 17 -13
2 -15 1 -4 -4z"/>
<path d="M1030 1260 c0 -5 -5 -9 -11 -7 -6 1 -14 -4 -17 -12 -3 -9 0 -11 8 -6
10 6 12 4 7 -8 -4 -11 -2 -14 9 -10 13 5 21 53 9 53 -3 0 -5 -4 -5 -10z"/>
<path d="M2130 1261 c0 -5 -8 -12 -17 -14 -11 -3 -7 -5 10 -6 16 0 26 3 23 8
-4 5 3 7 14 4 11 -3 20 0 20 6 0 6 -11 11 -25 11 -14 0 -25 -4 -25 -9z"/>
<path d="M940 1250 c0 -5 5 -10 10 -10 6 0 10 5 10 10 0 6 -4 10 -10 10 -5 0
-10 -4 -10 -10z"/>
<path d="M2202 1245 c-25 -18 -29 -35 -8 -35 17 0 39 26 34 40 -2 6 -12 4 -26
-5z"/>
<path d="M556 1224 c-4 -10 -13 -14 -26 -11 -11 3 -18 1 -14 -4 9 -15 41 -10
48 7 4 9 5 19 2 21 -2 2 -6 -4 -10 -13z"/>
<path d="M709 1238 c-5 -16 -2 -68 3 -68 4 0 5 -8 1 -17 -5 -15 -3 -16 8 -5
16 15 33 16 23 0 -4 -7 -3 -8 5 -4 9 6 9 11 0 22 -6 7 -15 12 -19 9 -4 -3 -10
9 -12 25 -3 16 0 32 6 34 7 3 6 5 -1 5 -7 1 -13 0 -14 -1z"/>
<path d="M1403 1226 c3 -7 0 -19 -6 -26 -10 -10 -7 -10 11 -1 25 13 30 41 6
41 -10 0 -14 -6 -11 -14z"/>
<path d="M1557 1216 c-4 -10 -5 -21 -2 -24 9 -9 17 6 13 25 -3 17 -4 17 -11
-1z"/>
<path d="M2150 1220 c0 -5 5 -10 10 -10 6 0 10 5 10 10 0 6 -4 10 -10 10 -5 0
-10 -4 -10 -10z"/>
<path d="M177 1213 c-4 -3 -7 -11 -7 -17 0 -6 5 -5 12 2 6 6 9 14 7 17 -3 3
-9 2 -12 -2z"/>
<path d="M216 1205 c-3 -8 -1 -15 4 -15 13 0 22 18 11 24 -5 3 -11 -1 -15 -9z"/>
<path d="M346 1211 c-3 -5 1 -11 9 -15 8 -3 15 -1 15 4 0 13 -18 22 -24 11z"/>
<path d="M1631 1208 c-12 -4 -19 -13 -16 -19 5 -7 12 -5 24 5 18 17 32 11 49
-19 11 -19 11 -18 12 6 0 30 -30 42 -69 27z"/>
<path d="M2071 1211 c-8 -5 -11 -16 -7 -27 5 -13 9 -15 18 -6 13 13 20 42 10
42 -4 0 -13 -4 -21 -9z"/>
<path d="M2240 1209 c0 -12 -12 -15 -57 -15 -41 1 -57 -3 -55 -11 1 -7 -4 -13
-12 -13 -35 0 -23 -75 17 -108 17 -14 87 -12 88 3 0 6 6 13 14 18 19 10 28 62
16 86 -7 12 -7 21 -1 23 6 2 6 8 0 18 -9 13 -10 13 -10 -1z"/>
<path d="M426 1197 c3 -10 9 -15 12 -12 3 3 0 11 -7 18 -10 9 -11 8 -5 -6z"/>
<path d="M923 1203 c-21 -8 -15 -22 7 -16 14 4 20 0 20 -11 0 -9 7 -16 15 -16
14 0 13 3 -1 25 -17 26 -20 27 -41 18z"/>
<path d="M613 1185 c0 -8 4 -12 9 -9 4 3 8 9 8 15 0 5 -4 9 -8 9 -5 0 -9 -7
-9 -15z"/>
<path d="M280 1181 c0 -6 5 -13 10 -16 6 -3 10 1 10 9 0 9 -4 16 -10 16 -5 0
-10 -4 -10 -9z"/>
<path d="M562 1173 c-8 -14 -9 -24 -2 -28 12 -7 24 18 18 37 -3 8 -9 5 -16 -9z"/>
<path d="M2014 1169 c-19 -22 -19 -22 3 -10 24 12 39 31 25 31 -5 0 -17 -10
-28 -21z"/>
<path d="M176 1163 c-4 -12 -2 -31 3 -42 8 -14 8 -22 0 -27 -8 -4 -8 -9 0 -17
8 -8 15 -5 25 9 12 16 12 20 1 22 -8 2 -12 9 -9 16 3 7 1 23 -4 36 l-9 25 -7
-22z"/>
<path d="M1847 1174 c-3 -3 -3 -12 0 -20 3 -8 -1 -22 -9 -32 -9 -9 -18 -26
-21 -37 -19 -63 -46 -127 -47 -110 0 11 -9 38 -20 60 -14 28 -18 33 -15 15 2
-14 7 -49 10 -79 7 -62 16 -82 56 -129 34 -38 35 -37 12 9 -22 41 -24 140 -5
185 10 25 18 30 36 27 17 -4 28 2 40 18 23 34 21 59 -6 59 -17 0 -19 3 -9 9 7
5 10 14 7 20 -8 12 -19 14 -29 5z"/>
<path d="M1024 1159 c-3 -6 -1 -16 5 -22 8 -8 11 -5 11 11 0 24 -5 28 -16 11z"/>
<path d="M1433 1163 c26 -2 67 -2 90 0 23 2 2 3 -48 3 -49 0 -68 -1 -42 -3z"/>
<path d="M1612 1142 c-11 -25 -11 -25 4 -10 9 9 15 21 13 27 -2 6 -10 -2 -17
-17z"/>
<path d="M1794 1145 c-17 -27 -16 -56 4 -63 7 -2 12 5 12 17 0 11 7 24 17 29
10 6 14 16 10 26 -9 23 -24 20 -43 -9z"/>
<path d="M370 1145 c0 -8 7 -15 15 -15 8 0 15 7 15 15 0 8 -7 15 -15 15 -8 0
-15 -7 -15 -15z"/>
<path d="M520 1150 c0 -5 5 -10 10 -10 6 0 10 5 10 10 0 6 -4 10 -10 10 -5 0
-10 -4 -10 -10z"/>
<path d="M1744 1150 c2 -16 20 -14 24 2 3 10 2 10 -6 -1 -7 -9 -11 -10 -15 -2
-4 7 -5 8 -3 1z"/>
<path d="M450 1142 c0 -5 7 -9 15 -9 8 0 12 4 9 9 -3 4 -9 8 -15 8 -5 0 -9 -4
-9 -8z"/>
<path d="M1475 1140 c-3 -5 -2 -17 3 -26 8 -14 10 -14 15 5 5 22 -7 38 -18 21z"/>
<path d="M1681 1139 c-1 -21 -31 -48 -31 -29 0 8 -3 11 -6 7 -3 -3 -1 -13 4
-23 9 -15 11 -14 27 9 9 15 15 32 12 39 -4 9 -6 8 -6 -3z"/>
<path d="M2277 1137 c-3 -8 0 -21 8 -27 19 -15 27 3 11 25 -11 16 -14 16 -19
2z"/>
<path d="M407 1121 c-3 -11 -1 -23 3 -26 14 -8 22 13 12 31 -8 14 -10 14 -15
-5z"/>
<path d="M624 1129 c-3 -6 -2 -15 4 -21 6 -6 11 -2 15 11 5 22 -7 29 -19 10z"/>
<path d="M656 1124 c-9 -24 -9 -24 37 -22 l42 1 -37 4 c-27 3 -35 8 -31 19 3
8 3 14 0 14 -3 0 -8 -7 -11 -16z"/>
<path d="M685 1130 c-3 -5 -1 -10 4 -10 6 0 11 5 11 10 0 6 -2 10 -4 10 -3 0
-8 -4 -11 -10z"/>
<path d="M763 1133 c-7 -2 -13 -11 -13 -20 0 -20 34 -12 38 10 3 17 -3 20 -25
10z"/>
<path d="M1435 1121 c-8 -26 1 -39 16 -24 8 8 8 17 1 29 -9 16 -10 15 -17 -5z"/>
<path d="M1520 1125 c-20 -24 2 -41 24 -20 9 9 16 21 16 26 0 14 -26 10 -40
-6z m18 -9 c-7 -8 -15 -12 -17 -11 -5 6 10 25 20 25 5 0 4 -6 -3 -14z"/>
<path d="M2003 1125 c0 -8 4 -12 9 -9 5 3 6 10 3 15 -9 13 -12 11 -12 -6z"/>
<path d="M2046 1124 c-8 -21 13 -49 27 -35 6 6 4 17 -6 31 -13 18 -15 19 -21
4z"/>
<path d="M516 1117 c-11 -7 -30 -22 -42 -34 -21 -19 -21 -23 -8 -34 13 -11 15
-10 12 4 -2 9 12 29 32 46 37 32 39 38 6 18z"/>
<path d="M591 1091 c20 -16 22 -21 10 -35 -8 -9 -12 -18 -9 -21 7 -7 48 7 48
17 0 12 -50 58 -63 58 -5 0 1 -8 14 -19z m39 -35 c0 -2 -7 -7 -16 -10 -8 -3
-12 -2 -9 4 6 10 25 14 25 6z"/>
<path d="M925 1084 c22 -17 89 -14 108 5 8 8 -9 11 -59 11 -64 -1 -68 -2 -49
-16z"/>
<path d="M1570 1090 c-11 -7 -6 -10 20 -10 26 0 31 3 20 10 -8 5 -17 10 -20
10 -3 0 -12 -5 -20 -10z"/>
<path d="M745 1079 c-4 -6 -5 -12 -2 -15 2 -3 7 2 10 11 7 17 1 20 -8 4z"/>
<path d="M1450 1070 c0 -5 5 -10 11 -10 5 0 7 5 4 10 -3 6 -8 10 -11 10 -2 0
-4 -4 -4 -10z"/>
<path d="M338 1063 c6 -2 18 -2 25 0 6 3 1 5 -13 5 -14 0 -19 -2 -12 -5z"/>
<path d="M387 1063 c-4 -3 -7 -11 -7 -17 0 -7 3 -7 8 0 4 7 16 14 27 17 19 5
19 5 -1 6 -11 0 -24 -2 -27 -6z"/>
<path d="M700 1060 c-13 -8 -13 -11 -1 -22 8 -8 11 -8 7 -1 -3 6 0 13 6 16 7
2 11 7 8 10 -3 3 -12 2 -20 -3z"/>
<path d="M910 1060 c0 -5 5 -10 10 -10 6 0 10 5 10 10 0 6 -4 10 -10 10 -5 0
-10 -4 -10 -10z"/>
<path d="M1707 1056 c-4 -10 -5 -21 -2 -24 9 -9 17 6 13 25 -3 17 -4 17 -11
-1z"/>
<path d="M980 1036 c0 -22 3 -27 11 -19 8 8 8 16 0 30 -9 16 -10 14 -11 -11z"/>
<path d="M1480 1054 c0 -17 17 -36 24 -26 3 5 -1 15 -9 22 -8 7 -15 9 -15 4z"/>
<path d="M426 1042 c-2 -4 4 -8 14 -8 10 0 16 4 14 8 -3 4 -9 8 -14 8 -5 0
-11 -4 -14 -8z"/>
<path d="M515 1041 c-3 -5 -2 -12 3 -15 5 -3 9 1 9 9 0 17 -3 19 -12 6z"/>
<path d="M2031 1034 c0 -11 3 -14 6 -6 3 7 2 16 -1 19 -3 4 -6 -2 -5 -13z"/>
<path d="M2325 1039 c-4 -6 -5 -12 -2 -15 2 -3 7 2 10 11 7 17 1 20 -8 4z"/>
<path d="M2100 1029 c0 -5 5 -7 10 -4 6 3 10 8 10 11 0 2 -4 4 -10 4 -5 0 -10
-5 -10 -11z"/>
<path d="M2346 1023 c-6 -14 -5 -15 5 -6 7 7 10 15 7 18 -3 3 -9 -2 -12 -12z"/>
<path d="M560 1026 c0 -2 7 -9 15 -16 13 -11 14 -10 9 4 -5 14 -24 23 -24 12z"/>
<path d="M2052 993 c3 -38 3 -38 47 -38 31 0 45 -5 48 -15 4 -12 3 -12 -5 -2
-14 21 -47 10 -50 -16 -4 -25 23 -41 41 -23 14 14 90 14 104 0 6 -6 16 -8 22
-5 14 9 14 36 1 36 -5 0 -10 14 -10 30 l0 30 -75 0 c-64 0 -76 3 -85 20 -6 11
-18 20 -26 20 -11 0 -14 -9 -12 -37z m75 -79 c-9 -9 -28 6 -21 18 4 6 10 6 17
-1 6 -6 8 -13 4 -17z"/>
<path d="M1542 959 c-2 -54 1 -68 14 -73 20 -8 19 -8 28 21 8 26 -9 40 -20 15
-6 -12 -10 1 -14 43 l-7 60 -1 -66z"/>
<path d="M1627 998 c-10 -34 -9 -38 8 -38 16 0 20 27 6 48 -6 10 -10 8 -14
-10z"/>
<path d="M429 1005 c0 -5 -2 -18 -4 -27 -2 -10 3 -18 11 -18 8 0 14 6 14 13 0
15 -19 46 -21 32z"/>
<path d="M637 1003 c-4 -3 -7 -11 -7 -17 0 -6 5 -5 12 2 6 6 9 14 7 17 -3 3
-9 2 -12 -2z"/>
<path d="M1495 1001 c-3 -5 -1 -12 5 -16 5 -3 10 1 10 9 0 18 -6 21 -15 7z"/>
<path d="M1680 989 c0 -11 4 -18 10 -14 5 3 7 12 3 20 -7 21 -13 19 -13 -6z"/>
<path d="M1843 995 c-26 -18 -42 -62 -33 -95 6 -23 7 -22 14 12 3 20 20 50 35
67 30 32 21 42 -16 16z"/>
<path d="M950 989 c0 -5 5 -7 10 -4 6 3 10 8 10 11 0 2 -4 4 -10 4 -5 0 -10
-5 -10 -11z"/>
<path d="M600 981 c0 -6 4 -13 10 -16 6 -3 7 1 4 9 -7 18 -14 21 -14 7z"/>
<path d="M858 983 c-10 -2 -18 -9 -18 -14 0 -6 4 -8 9 -5 5 4 7 -4 3 -16 -5
-20 -3 -21 10 -10 16 13 31 53 20 51 -4 -1 -15 -3 -24 -6z"/>
<path d="M1949 959 c-7 -18 -23 -42 -35 -54 -39 -39 -84 -140 -84 -188 0 -66
22 -81 117 -81 70 0 77 2 99 28 13 15 24 38 24 52 0 29 -86 204 -100 204 -13
0 -13 33 1 47 7 7 7 13 1 17 -5 3 -15 -8 -23 -25z m-37 -106 c-14 -25 -36 -72
-49 -102 -12 -31 -23 -47 -23 -36 0 35 78 185 96 185 1 0 -9 -21 -24 -47z"/>
<path d="M306 972 c-3 -5 1 -9 9 -9 8 0 12 4 9 9 -3 4 -7 8 -9 8 -2 0 -6 -4
-9 -8z"/>
<path d="M570 970 c-9 -6 -10 -10 -3 -10 6 0 15 5 18 10 8 12 4 12 -15 0z"/>
<path d="M660 965 c-9 -11 -10 -19 -3 -26 8 -8 13 -5 18 11 4 12 5 24 2 26 -2
2 -10 -3 -17 -11z"/>
<path d="M700 952 c0 -17 5 -34 11 -37 6 -4 14 -17 18 -29 7 -16 9 -12 9 21 1
28 -5 46 -19 59 -18 17 -19 16 -19 -14z"/>
<path d="M793 963 c-13 -13 -23 -32 -23 -42 0 -11 -3 -28 -6 -38 -5 -15 -4
-15 7 2 7 11 21 27 32 35 12 10 18 25 15 40 l-3 25 -22 -22z"/>
<path d="M960 960 c-11 -11 -20 -26 -20 -32 0 -10 3 -9 9 1 5 7 14 11 19 7 6
-4 23 -4 37 0 25 6 25 7 9 25 -22 24 -29 24 -54 -1z"/>
<path d="M1985 960 c-10 -11 -15 -23 -11 -27 11 -11 61 11 64 30 5 24 -30 22
-53 -3z"/>
<path d="M2340 977 c0 -13 40 -47 56 -47 8 0 13 4 10 9 -4 5 -1 11 6 13 15 5
1 28 -18 28 -8 0 -14 -7 -14 -17 0 -14 -2 -14 -20 2 -11 10 -20 15 -20 12z"/>
<path d="M551 934 c0 -11 3 -14 6 -6 3 7 2 16 -1 19 -3 4 -6 -2 -5 -13z"/>
<path d="M2430 912 c0 -22 4 -32 12 -30 18 6 20 22 3 43 -14 19 -14 18 -15
-13z"/>
<path d="M2306 923 c-3 -3 -6 -20 -6 -37 0 -24 -3 -28 -10 -16 -9 13 -11 13
-20 0 -15 -23 -12 -40 7 -40 9 0 13 3 10 7 -4 3 6 14 22 24 22 13 28 23 24 39
-6 23 -17 33 -27 23z m11 -35 c-3 -7 -5 -2 -5 12 0 14 2 19 5 13 2 -7 2 -19 0
-25z"/>
<path d="M305 909 c-10 -15 3 -25 16 -12 7 7 7 13 1 17 -6 3 -14 1 -17 -5z"/>
<path d="M427 909 c7 -8 13 -55 15 -110 l3 -94 5 102 c3 56 3 100 1 97 -2 -2
-11 2 -20 9 -14 10 -14 10 -4 -4z"/>
<path d="M650 914 c0 -18 24 -44 40 -44 22 0 26 20 8 38 -12 12 -48 17 -48 6z"/>
<path d="M852 908 c-7 -7 -12 -21 -12 -33 0 -12 -20 -40 -46 -65 l-46 -45 6
48 c5 31 4 47 -3 47 -6 0 -11 -14 -11 -31 l0 -31 -29 24 c-79 63 -93 69 -107
46 -10 -15 26 -39 48 -33 34 11 88 -45 88 -91 0 -13 -7 -12 -36 6 -30 19 -40
21 -60 11 -36 -16 -19 -34 27 -28 49 6 64 -11 61 -69 -1 -33 2 -44 13 -44 11
0 15 12 15 49 0 59 17 76 74 76 30 0 41 4 41 15 0 24 -35 24 -77 0 l-40 -22
11 21 c7 11 23 28 37 37 22 15 31 15 67 4 23 -7 48 -14 55 -16 7 -2 10 -9 6
-16 -5 -10 -4 -10 7 0 12 11 12 14 -1 22 -8 5 -11 10 -6 10 5 0 2 7 -5 16 -10
12 -24 15 -56 10 -24 -3 -43 -2 -43 4 0 11 41 41 49 36 3 -2 7 9 8 25 2 31
-14 38 -35 17z"/>
<path d="M908 895 c-7 -36 -3 -46 18 -38 9 3 11 9 5 17 -5 6 -11 20 -13 31 -3
16 -5 14 -10 -10z"/>
<path d="M2371 913 c4 -22 -2 -33 -13 -27 -9 5 -9 3 1 -9 16 -20 33 -13 24 10
-4 10 -2 14 4 10 6 -4 13 0 17 8 4 10 -1 15 -14 15 -11 0 -19 -3 -19 -7z"/>
<path d="M1000 896 c0 -9 5 -16 10 -16 6 0 10 4 10 9 0 6 -4 13 -10 16 -5 3
-10 -1 -10 -9z"/>
<path d="M394 875 c-1 -14 2 -22 7 -19 11 6 12 44 2 44 -5 0 -9 -11 -9 -25z"/>
<path d="M568 893 c12 -2 32 -2 45 0 12 2 2 4 -23 4 -25 0 -35 -2 -22 -4z"/>
<path d="M792 888 c-16 -16 -15 -48 2 -48 14 0 26 21 26 46 0 17 -12 18 -28 2z"/>
<path d="M332 868 c-15 -15 -16 -54 -2 -63 6 -3 10 -16 11 -28 1 -16 3 -13 10
11 8 28 14 33 32 28 12 -3 29 -1 37 4 13 9 13 10 0 11 -8 1 -23 1 -32 0 -9 -1
-23 9 -30 24 -11 20 -16 23 -26 13z m15 -60 c-3 -8 -6 -5 -6 6 -1 11 2 17 5
13 3 -3 4 -12 1 -19z"/>
<path d="M175 851 c-8 -27 -2 -36 13 -18 6 7 7 18 3 26 -7 10 -10 8 -16 -8z"/>
<path d="M994 850 c9 -13 16 -34 16 -45 -1 -19 -1 -19 -14 -2 -11 14 -15 15
-19 4 -8 -21 8 -39 29 -35 28 5 28 39 -2 73 -18 22 -21 23 -10 5z"/>
<path d="M1020 860 c0 -5 5 -10 10 -10 6 0 10 5 10 10 0 6 -4 10 -10 10 -5 0
-10 -4 -10 -10z"/>
<path d="M561 846 c-8 -10 -9 -16 -1 -21 5 -3 13 1 16 10 9 22 -1 29 -15 11z"/>
<path d="M2412 825 c-11 -13 -23 -21 -27 -17 -5 4 -5 2 -2 -4 8 -14 -12 -76
-27 -86 -8 -5 -8 -8 0 -8 23 0 47 27 41 49 -3 11 -1 21 5 21 5 0 6 5 2 11 -4
8 0 9 15 4 12 -3 35 -4 51 0 l30 7 -29 24 c-36 30 -35 30 -59 -1z"/>
<path d="M1597 821 c-3 -12 -1 -24 4 -27 13 -8 24 25 12 37 -7 7 -12 3 -16
-10z"/>
<path d="M2061 830 c-10 -5 -9 -8 2 -13 7 -3 19 -2 26 3 10 5 9 8 -2 13 -7 3
-19 2 -26 -3z"/>
<path d="M634 809 c-7 -12 12 -29 33 -29 19 0 27 21 12 31 -19 12 -36 11 -45
-2z"/>
<path d="M238 803 c7 -3 16 -2 19 1 4 3 -2 6 -13 5 -11 0 -14 -3 -6 -6z"/>
<path d="M2310 795 c0 -8 2 -15 4 -15 2 0 6 7 10 15 3 8 1 15 -4 15 -6 0 -10
-7 -10 -15z"/>
<path d="M300 780 c0 -5 5 -10 10 -10 6 0 10 5 10 10 0 6 -4 10 -10 10 -5 0
-10 -4 -10 -10z"/>
<path d="M557 783 c-4 -3 -7 -11 -7 -17 0 -6 5 -5 12 2 6 6 9 14 7 17 -3 3 -9
2 -12 -2z"/>
<path d="M472 768 c-7 -7 -12 -16 -12 -22 0 -5 7 -1 15 10 14 18 15 17 5 -8
-7 -22 -6 -26 5 -21 8 3 15 16 15 29 0 26 -10 30 -28 12z"/>
<path d="M2136 765 c-3 -8 -1 -15 4 -15 6 0 10 7 10 15 0 8 -2 15 -4 15 -2 0
-6 -7 -10 -15z"/>
<path d="M1781 733 c0 -24 -5 -43 -11 -43 -15 0 -12 -26 5 -40 21 -18 26 3 16
70 -8 54 -9 54 -10 13z"/>
<path d="M170 746 c0 -9 5 -16 10 -16 6 0 10 4 10 9 0 6 -4 13 -10 16 -5 3
-10 -1 -10 -9z"/>
<path d="M2518 753 c12 -2 20 -8 18 -12 -3 -4 1 -8 9 -8 11 0 12 4 4 14 -6 7
-21 12 -33 12 -20 -2 -20 -2 2 -6z"/>
<path d="M318 743 c12 -2 22 -10 22 -16 0 -9 2 -9 8 -1 4 7 16 14 27 17 11 2
-2 5 -30 4 -27 0 -40 -2 -27 -4z"/>
<path d="M938 723 c12 -2 22 -9 22 -14 0 -5 5 -9 11 -9 8 0 8 5 -1 15 -7 8
-22 14 -34 14 -20 -2 -20 -2 2 -6z"/>
<path d="M375 701 c-8 -27 11 -54 21 -28 3 9 1 24 -4 33 -9 16 -10 15 -17 -5z"/>
<path d="M560 699 c0 -12 -8 -28 -17 -36 -16 -13 -16 -13 5 -3 14 7 22 20 22
35 0 14 -2 25 -5 25 -3 0 -5 -10 -5 -21z"/>
<path d="M264 691 c3 -5 -1 -11 -9 -15 -8 -3 -15 -13 -15 -23 0 -15 2 -15 15
3 14 18 14 17 5 -10 -9 -26 -9 -27 5 -16 17 14 21 70 4 70 -5 0 -8 -4 -5 -9z"/>
<path d="M307 694 c-4 -4 -7 -14 -7 -23 0 -11 3 -12 11 -4 6 6 10 16 7 23 -2
6 -7 8 -11 4z"/>
<path d="M1015 683 c3 -8 5 -17 5 -19 0 -3 5 -2 10 1 16 10 12 32 -5 32 -10 0
-14 -6 -10 -14z"/>
<path d="M520 679 c0 -5 5 -7 10 -4 6 3 10 8 10 11 0 2 -4 4 -10 4 -5 0 -10
-5 -10 -11z"/>
<path d="M576 674 c-9 -25 -7 -34 8 -34 22 0 26 13 11 33 -11 16 -13 16 -19 1z"/>
<path d="M181 664 c0 -11 3 -14 6 -6 3 7 2 16 -1 19 -3 4 -6 -2 -5 -13z"/>
<path d="M775 670 c3 -5 8 -10 11 -10 2 0 4 5 4 10 0 6 -5 10 -11 10 -5 0 -7
-4 -4 -10z"/>
<path d="M490 663 c0 -7 5 -13 11 -13 7 0 9 -10 5 -26 -5 -18 -3 -25 5 -22 21
7 21 24 0 49 -11 13 -20 18 -21 12z"/>
<path d="M1736 655 c4 -8 11 -15 16 -15 6 0 5 6 -2 15 -7 8 -14 15 -16 15 -2
0 -1 -7 2 -15z"/>
<path d="M320 642 c0 -19 88 -109 102 -104 12 3 9 -13 -4 -26 -10 -10 -8 -17
9 -33 20 -20 20 -22 3 -39 -10 -10 -26 -23 -36 -29 -13 -8 -14 -11 -4 -10 8 1
33 -6 54 -15 21 -10 47 -15 58 -13 10 3 18 1 18 -3 0 -5 -10 -11 -22 -13 l-23
-4 23 -2 c12 0 25 6 28 14 4 10 16 13 37 9 26 -3 28 -2 12 5 -17 8 -17 10 -3
10 27 1 32 21 10 44 -10 12 -22 36 -26 52 l-6 30 24 -27 c21 -24 33 -28 76
-28 47 0 50 2 50 25 0 29 73 115 97 115 12 0 13 3 4 14 -10 12 -18 9 -49 -20
l-37 -34 -3 25 c-3 24 -6 25 -72 25 -51 0 -68 -3 -66 -12 3 -7 7 -35 10 -63
l6 -49 -35 34 c-19 19 -35 30 -35 25 0 -4 -9 0 -20 10 -16 14 -22 15 -35 5
-12 -10 -17 -9 -30 3 -8 9 -15 20 -15 25 0 13 -74 72 -89 72 -6 0 -11 -8 -11
-18z m197 -124 c24 -23 33 -41 33 -65 0 -18 -4 -33 -9 -33 -23 0 -68 23 -94
48 l-27 26 27 28 c15 15 29 28 32 28 3 0 20 -14 38 -32z m24 5 c13 -16 12 -17
-3 -4 -17 13 -22 21 -14 21 2 0 10 -8 17 -17z"/>
<path d="M2346 645 c-7 -20 -9 -18 22 -34 19 -10 22 -9 22 5 0 10 -3 14 -7 10
-4 -3 -12 3 -18 15 -11 19 -13 20 -19 4z"/>
<path d="M2543 653 c9 -2 23 -2 30 0 6 3 -1 5 -18 5 -16 0 -22 -2 -12 -5z"/>
<path d="M2582 638 c-7 -7 -12 -16 -12 -22 0 -5 7 -1 15 10 14 19 14 18 9 -2
-4 -15 0 -23 12 -28 10 -4 15 -4 12 -1 -4 4 -3 18 2 31 8 20 6 24 -8 24 -10 0
-23 -5 -30 -12z"/>
<path d="M875 620 c-8 -24 7 -46 24 -36 15 10 14 31 -3 45 -11 10 -16 8 -21
-9z"/>
<path d="M955 630 c-3 -6 1 -7 9 -4 18 7 21 14 7 14 -6 0 -13 -4 -16 -10z"/>
<path d="M990 630 c0 -5 5 -10 10 -10 6 0 10 5 10 10 0 6 -4 10 -10 10 -5 0
-10 -4 -10 -10z"/>
<path d="M2244 625 c-3 -8 -3 -19 1 -25 11 -18 25 -11 25 15 0 27 -17 34 -26
10z"/>
<path d="M2500 620 c0 -5 4 -10 9 -10 12 0 7 -30 -9 -59 -9 -17 -8 -21 4 -21
21 0 8 -30 -13 -30 -35 -1 23 -30 59 -30 20 0 45 7 56 15 23 18 12 20 -17 3
-17 -10 -23 -10 -26 0 -3 6 -13 12 -24 12 -18 0 -19 1 -3 24 10 16 21 23 31
19 9 -4 1 9 -18 27 -19 18 -27 31 -17 27 28 -10 29 5 2 20 -31 16 -34 16 -34
3z"/>
<path d="M1005 607 c-14 -11 -15 -16 -5 -22 11 -7 29 9 30 28 0 10 -3 9 -25
-6z"/>
<path d="M1754 607 c-8 -21 -3 -29 13 -19 8 5 9 13 3 22 -7 12 -10 12 -16 -3z"/>
<path d="M1995 610 c-9 -14 0 -23 25 -25 14 -1 20 5 20 19 0 17 -2 18 -10 6
-8 -12 -11 -13 -19 -1 -6 10 -10 10 -16 1z"/>
<path d="M2635 612 c-5 -4 -12 -18 -13 -32 -2 -14 -5 -29 -5 -35 -1 -5 12 -11
28 -13 17 -2 35 -8 40 -14 7 -7 6 -9 -1 -5 -6 3 -11 0 -11 -8 0 -19 2 -19 21
1 21 21 20 31 -5 44 -15 8 -24 8 -34 0 -17 -14 -31 5 -17 23 7 9 14 48 8 47
-1 0 -5 -4 -11 -8z"/>
<path d="M1910 588 c0 -7 5 -20 10 -28 8 -12 10 -11 10 7 0 12 -4 25 -10 28
-5 3 -10 0 -10 -7z"/>
<path d="M2210 590 c0 -5 5 -10 11 -10 5 0 7 5 4 10 -3 6 -8 10 -11 10 -2 0
-4 -4 -4 -10z"/>
<path d="M823 573 c9 -2 23 -2 30 0 6 3 -1 5 -18 5 -16 0 -22 -2 -12 -5z"/>
<path d="M937 573 c-10 -9 -9 -23 1 -23 5 0 9 7 9 15 0 17 -1 18 -10 8z"/>
<path d="M303 558 c-11 -15 -10 -23 1 -57 l8 -24 13 23 c7 13 11 31 10 39 -2
9 -4 19 -4 24 -1 11 -18 8 -28 -5z m14 -45 c-3 -10 -5 -4 -5 12 0 17 2 24 5
18 2 -7 2 -21 0 -30z"/>
<path d="M1946 553 c-6 -14 -5 -15 5 -6 7 7 10 15 7 18 -3 3 -9 -2 -12 -12z"/>
<path d="M1015 539 c-4 -11 -4 -23 -2 -26 9 -8 27 7 27 22 0 23 -18 27 -25 4z"/>
<path d="M2223 553 c9 -2 23 -2 30 0 6 3 -1 5 -18 5 -16 0 -22 -2 -12 -5z"/>
<path d="M972 530 c0 -14 2 -19 5 -12 2 6 2 18 0 25 -3 6 -5 1 -5 -13z"/>
<path d="M876 525 c-3 -9 0 -15 8 -15 7 0 13 7 13 15 0 8 -4 15 -8 15 -4 0 -9
-7 -13 -15z"/>
<path d="M1780 525 c-6 -8 -10 -20 -7 -27 4 -8 6 -7 6 4 1 9 5 19 10 22 5 4 7
-3 4 -14 -3 -11 0 -20 6 -20 6 0 11 11 11 25 0 28 -12 32 -30 10z"/>
<path d="M2245 530 c-4 -6 -9 -8 -13 -6 -4 2 -5 -25 -4 -60 3 -41 0 -64 -7
-64 -17 0 -13 -60 5 -67 19 -7 31 4 39 40 6 21 4 27 -9 27 -13 0 -16 11 -16
58 0 32 5 63 12 70 7 7 9 12 6 12 -4 0 -10 -5 -13 -10z"/>
<path d="M782 519 c11 -6 15 -16 11 -27 -4 -13 -3 -14 6 -6 15 14 3 44 -18 44
-14 -1 -14 -2 1 -11z"/>
<path d="M814 495 c-2 -26 11 -34 19 -12 5 14 -2 37 -12 37 -3 0 -7 -11 -7
-25z"/>
<path d="M2657 465 c6 -32 11 -41 17 -34 2 2 -2 18 -10 34 l-13 30 6 -30z"/>
<path d="M1918 473 c7 -3 16 -2 19 1 4 3 -2 6 -13 5 -11 0 -14 -3 -6 -6z"/>
<path d="M321 454 c0 -11 3 -14 6 -6 3 7 2 16 -1 19 -3 4 -6 -2 -5 -13z"/>
<path d="M903 456 c-10 -11 -9 -15 3 -20 8 -3 12 -10 9 -16 -3 -5 -2 -10 4
-10 5 0 9 14 9 30 -1 33 -7 36 -25 16z"/>
<path d="M376 445 c-3 -9 0 -15 9 -15 16 0 20 16 6 24 -5 3 -11 -1 -15 -9z"/>
<path d="M706 444 c-18 -13 -17 -14 19 -14 21 0 36 1 34 3 -2 1 -11 8 -19 14
-11 9 -20 8 -34 -3z"/>
<path d="M983 453 c-18 -7 -16 -30 3 -37 21 -8 34 1 33 22 -1 15 -2 15 -6 0
-5 -19 -18 -24 -27 -9 -4 5 0 11 6 14 7 2 11 7 8 9 -3 3 -11 3 -17 1z"/>
<path d="M835 427 c2 -23 31 -35 47 -19 6 6 0 8 -16 5 -21 -4 -25 -2 -20 10 3
8 1 17 -4 21 -5 3 -8 -5 -7 -17z"/>
<path d="M860 440 c0 -5 5 -10 11 -10 5 0 7 5 4 10 -3 6 -8 10 -11 10 -2 0 -4
-4 -4 -10z"/>
<path d="M940 420 c0 -17 -5 -30 -12 -30 -9 0 -8 -4 2 -10 8 -5 11 -10 5 -10
-5 -1 1 -6 14 -11 26 -10 61 -3 61 12 0 6 4 8 9 4 5 -3 12 -1 16 4 3 6 -4 8
-17 5 -63 -15 -75 -9 -70 31 2 19 1 35 -2 35 -3 0 -6 -13 -6 -30z"/>
<path d="M1931 440 c-1 -21 16 -46 26 -37 4 5 3 11 -3 15 -6 4 -14 14 -17 22
-5 13 -5 13 -6 0z"/>
<path d="M2395 441 c-3 -5 -1 -12 5 -16 5 -3 10 1 10 9 0 18 -6 21 -15 7z"/>
<path d="M2601 436 c-13 -16 -2 -29 16 -18 7 4 8 13 4 20 -6 10 -10 10 -20 -2z"/>
<path d="M1891 414 c13 -16 29 -19 29 -5 0 5 -9 11 -21 14 -16 4 -18 3 -8 -9z"/>
<path d="M310 412 c0 -5 7 -9 15 -9 8 0 12 4 9 9 -3 4 -9 8 -15 8 -5 0 -9 -4
-9 -8z"/>
<path d="M2632 407 c-32 -18 -17 -27 44 -27 59 0 79 15 39 30 -34 13 -55 12
-83 -3z"/>
<path d="M760 398 c0 -22 17 -41 29 -34 19 12 13 46 -9 46 -11 0 -20 -6 -20
-12z"/>
<path d="M2397 377 c-21 -32 -21 -41 -1 -57 12 -11 18 -10 31 3 15 15 15 20 2
48 l-15 32 -17 -26z"/>
<path d="M170 374 c0 -8 5 -12 10 -9 6 3 10 10 10 16 0 5 -4 9 -10 9 -5 0 -10
-7 -10 -16z"/>
<path d="M1893 375 c-25 -11 -31 -35 -9 -35 7 0 19 7 26 15 7 8 16 12 21 9 5
-3 9 1 9 9 0 16 -16 17 -47 2z"/>
<path d="M345 368 c-9 -23 2 -51 17 -46 18 6 20 22 4 43 -14 19 -15 19 -21 3z"/>
<path d="M415 370 c-19 -8 -19 -9 3 -9 12 -1 22 4 22 9 0 6 -1 10 -2 9 -2 0
-12 -4 -23 -9z"/>
<path d="M665 370 c3 -5 10 -10 16 -10 5 0 9 5 9 10 0 6 -7 10 -16 10 -8 0
-12 -4 -9 -10z"/>
<path d="M710 370 c0 -6 6 -10 14 -10 8 0 18 -5 22 -12 5 -7 3 -8 -6 -3 -8 5
-11 3 -9 -4 6 -17 23 -15 27 2 1 7 -9 19 -23 25 -15 7 -25 8 -25 2z"/>
<path d="M1952 359 c2 -6 8 -10 13 -10 5 0 11 4 13 10 2 6 -4 11 -13 11 -9 0
-15 -5 -13 -11z"/>
<path d="M1995 360 c-3 -5 -1 -10 4 -10 6 0 11 5 11 10 0 6 -2 10 -4 10 -3 0
-8 -4 -11 -10z"/>
<path d="M557 346 c-3 -8 -2 -18 3 -21 13 -8 20 9 11 24 -6 10 -10 9 -14 -3z"/>
<path d="M888 353 c7 -3 16 -2 19 1 4 3 -2 6 -13 5 -11 0 -14 -3 -6 -6z"/>
<path d="M198 343 c7 -3 16 -2 19 1 4 3 -2 6 -13 5 -11 0 -14 -3 -6 -6z"/>
<path d="M427 340 c-7 -21 -5 -50 4 -50 15 0 19 18 10 42 -7 17 -10 19 -14 8z"/>
<path d="M690 341 c0 -6 4 -12 8 -15 5 -3 9 1 9 9 0 8 -4 15 -9 15 -4 0 -8 -4
-8 -9z"/>
<path d="M1931 343 c-1 -8 -14 -13 -32 -13 -37 0 -30 -15 12 -24 19 -3 41 0
57 9 l27 14 -27 1 c-14 0 -29 6 -31 13 -4 10 -6 10 -6 0z"/>
<path d="M2116 331 c-8 -12 3 -41 15 -41 5 0 9 3 10 8 0 4 2 15 4 25 3 18 -19
24 -29 8z"/>
<path d="M2680 321 c-16 -31 -12 -37 10 -13 22 23 25 32 10 32 -5 0 -14 -9
-20 -19z"/>
<path d="M498 312 c-3 -11 0 -19 8 -19 8 0 14 9 14 19 0 23 -16 23 -22 0z"/>
<path d="M2313 315 c0 -8 4 -15 9 -15 4 0 8 4 8 9 0 6 -4 12 -8 15 -5 3 -9 -1
-9 -9z"/>
<path d="M560 306 c0 -2 8 -10 18 -17 15 -13 16 -12 3 4 -13 16 -21 21 -21 13z"/>
<path d="M697 296 c-3 -7 -9 -34 -12 -60 -6 -39 -5 -45 8 -40 10 3 17 -1 20
-13 3 -10 5 1 6 25 0 23 -3 42 -9 42 -17 0 -11 38 8 49 15 9 15 10 1 11 -9 0
-19 -6 -22 -14z"/>
<path d="M778 303 c7 -3 16 -2 19 1 4 3 -2 6 -13 5 -11 0 -14 -3 -6 -6z"/>
<path d="M860 303 c0 -16 19 -37 27 -30 4 5 1 13 -7 18 -13 9 -12 10 2 5 10
-3 20 -1 23 4 4 6 -5 10 -19 10 -14 0 -26 -3 -26 -7z"/>
<path d="M171 284 c0 -11 3 -14 6 -6 3 7 2 16 -1 19 -3 4 -6 -2 -5 -13z"/>
<path d="M600 290 c0 -5 4 -10 9 -10 6 0 13 5 16 10 3 6 -1 10 -9 10 -9 0 -16
-4 -16 -10z"/>
<path d="M836 285 c-3 -8 -1 -15 4 -15 6 0 10 7 10 15 0 8 -2 15 -4 15 -2 0
-6 -7 -10 -15z"/>
<path d="M932 280 c-17 -28 -15 -39 7 -37 13 1 18 8 16 24 -3 32 -9 35 -23 13z"/>
<path d="M713 275 c0 -8 4 -12 9 -9 4 3 8 9 8 15 0 5 -4 9 -8 9 -5 0 -9 -7 -9
-15z"/>
<path d="M756 274 c-9 -24 -7 -31 5 -11 6 9 15 14 21 11 7 -4 8 -2 4 4 -10 17
-23 15 -30 -4z"/>
<path d="M2085 280 c-3 -5 -1 -10 4 -10 6 0 11 5 11 10 0 6 -2 10 -4 10 -3 0
-8 -4 -11 -10z"/>
<path d="M2355 280 c-3 -5 -1 -10 4 -10 6 0 11 5 11 10 0 6 -2 10 -4 10 -3 0
-8 -4 -11 -10z"/>
<path d="M479 275 c0 0 -2 -9 -4 -21 -4 -18 0 -20 19 -17 34 7 42 41 10 39
-13 0 -24 -1 -25 -1z m26 -23 c-3 -3 -11 0 -18 7 -9 10 -8 11 6 5 10 -3 15 -9
12 -12z"/>
<path d="M625 273 c-26 -6 -44 -23 -24 -23 8 0 24 7 35 15 10 8 17 14 14 14
-3 -1 -14 -3 -25 -6z"/>
<path d="M1970 265 c0 -8 4 -15 10 -15 5 0 7 7 4 15 -4 8 -8 15 -10 15 -2 0
-4 -7 -4 -15z"/>
<path d="M2426 271 c-4 -5 -2 -12 3 -15 5 -4 12 -2 15 3 4 5 2 12 -3 15 -5 4
-12 2 -15 -3z"/>
<path d="M2320 245 c0 -14 4 -25 9 -25 4 0 6 11 3 25 -2 14 -6 25 -8 25 -2 0
-4 -11 -4 -25z"/>
<path d="M778 253 c7 -3 16 -2 19 1 4 3 -2 6 -13 5 -11 0 -14 -3 -6 -6z"/>
<path d="M625 240 c-3 -5 -12 -7 -19 -4 -8 3 -17 1 -21 -5 -3 -6 2 -11 12 -12
14 0 14 -2 -4 -9 -32 -13 -29 -22 5 -14 31 7 54 24 33 24 -11 0 -11 3 -1 15 7
8 10 15 7 15 -3 0 -8 -4 -12 -10z"/>
<path d="M770 230 c-9 -6 -10 -10 -3 -10 6 0 15 5 18 10 8 12 4 12 -15 0z"/>
<path d="M2076 224 c-13 -12 -13 -18 -3 -29 15 -17 23 -12 29 20 6 29 -4 32
-26 9z"/>
<path d="M523 215 c0 -8 4 -12 9 -9 5 3 6 10 3 15 -9 13 -12 11 -12 -6z"/>
<path d="M550 214 c0 -8 5 -12 10 -9 6 4 8 11 5 16 -9 14 -15 11 -15 -7z"/>
<path d="M190 209 c0 -5 -4 -7 -10 -4 -5 3 -10 2 -10 -4 0 -20 19 -21 30 -1 7
13 7 20 0 20 -5 0 -10 -5 -10 -11z"/>
<path d="M471 204 c0 -11 3 -14 6 -6 3 7 2 16 -1 19 -3 4 -6 -2 -5 -13z"/>
<path d="M995 210 c4 -7 -3 -8 -21 -4 -19 5 -25 4 -20 -5 4 -6 12 -9 17 -6 5
4 9 -1 9 -9 0 -20 14 -20 30 -1 7 8 16 12 21 9 5 -3 6 2 3 10 -3 9 -15 16 -26
16 -11 0 -16 -5 -13 -10z"/>
<path d="M2290 200 c-12 -8 -10 -10 10 -11 23 0 23 -1 5 -9 -15 -6 -8 -9 28
-9 34 -1 46 2 41 11 -5 8 -1 9 12 5 18 -7 18 -7 0 8 -22 17 -73 20 -96 5z"/>
<path d="M2435 199 c-4 -6 -4 -13 -1 -16 3 -4 6 -1 6 5 0 6 8 13 18 15 15 4
15 5 0 6 -9 0 -20 -4 -23 -10z"/>
<path d="M2781 201 c-8 -5 -9 -11 -3 -15 5 -3 12 1 16 9 6 17 6 18 -13 6z"/>
<path d="M771 184 c0 -11 3 -14 6 -6 3 7 2 16 -1 19 -3 4 -6 -2 -5 -13z"/>
<path d="M498 173 c7 -3 16 -2 19 1 4 3 -2 6 -13 5 -11 0 -14 -3 -6 -6z"/>
</g>
</svg>
